<?xml version="1.0" encoding="UTF-8"?>
<svg version="1.1" viewBox="0 0 2048 1626" width="913" height="725" xmlns="http://www.w3.org/2000/svg">
<path transform="translate(0)" d="m0 0h2048v1626h-2048z" fill="#FDF8E8"/>
<path transform="translate(1006,360)" d="m0 0h20l28 1 36 4 1 4-8 51-1 4 9 1 19 4 25 7 20 7 18 7 4 2 3-9 19-42 1-2 6 1 16 8 19 10 26 16 9 6v2l5 2 12 9 14 11 10 9-3 5-10 11-7 8-9 10-7 8-2 3 30 30 9 11 12 15 12 17 4-1 45-30h2l13 21 9 16 1 4 39-1h22v-57h1v57l32-1h30v1l-24 1h-38v65h126v1l-111 2h-14l-1 65 58-1h207v1l-12 1h-132l-96 1h-25v64l200 1v-50h1v50h66l-1-68 1-33h1v33h51l14 1v1h-65v66h64v1h-64v66h64v1h-64v66h66v-40h2v92l-1 15h117l14 1v1h-63v64l-1 2-35 1h-31v66l-2 2v-69h-66v65h-1v-65l-2 1h-64v65h54v1l-14 1h-40v45h-1v-45l-49 1h-17v65h53v1l-53 1 1 66-1 24h-1v-24l-65 1-1 45h-1v-46h-66v33h-1v-33h-66v35h-1l-1-34h-63l-2-1v37l-1 12h-1l-1-48h-64l-1 48h-1v-49l-21 1h-44l-1 59h-1v-59h-66v64l2 1h-2v41h-1v-41l-36 1h-27v-1l13-1h50v-64h-66v130h-1l-1-79v-51h-65v132l66-1h120v1l-53 1h-66v66l67-1 1 2-1 66h66v-45h1v45h65v1h-65v67h66v-69h50l2 2h-50v45l-1 22h66v-69h2v68h65v-67h66v1h-64v67h65v-68h66v1h-64v67l65-1 1-68 64 1v1h-63v67h66v-69h62l2 2h-63v67h66v-69l67 1v-40h2v39l65 1v87h-1812v-421h67v25l-1 39h2l-1-67 1-64 42-1h25l-67-1v-65h64v-2l-46 1h-18v-66h66v67l2-1h148l51 1 1 67h41l25 1v66l1 16v36l1-52h26l-26-1v-65l65-1v-66h-65l1 25 2 7 3 1h12l21-1h12v17l-25 2-16 1h-13l-11-4-6-5-3-7-1-38 1-25 4-8 9-6 8-1v-25h-15v-2h15v-68l67-1 1-51h1l1 52 41 1 23 1v-67h-66l-268-1v-1l67-1 230 1 37 1v-66h-66l-204-1 3-2 227 1 40 1v-66h-25l-97-1v-1h110l12 1v-37l1-30h-43l-72-1v-1h81l34 1v-54h1v54l59 1 2-9 6-17 12-27 8-16 12-22 13-20 2-1 16 11-5 12-31 62-6 10-4 10-1 8 3 7-1 5-3 8-10-2-17-5 1-7 2-6h-54l-4-1v67h65v-22l1-26h1v49h-67v51l-1 15h29l-1-9 3-6 7-8 10-14 6-9 5-13 5-4 8-2 1-6 12-29 11-25v-2l-4-3v-7l5-12 42-84 10-19 3-8-2-3 5-12 5-7 5-3h7l11 7 3 1 14-25 17-28 14-22 18-27 8-9 5 1 7 6 3-7 3-3 19-9 9-4 4 1 11 26 11 25 9-3 28-10 25-7 11-3 22-3-5-31-3-21v-7l22-3zm806 1100h1v11h64v1l-18 1h-29l-17-1 1 17v35l-1 15h-1z" fill="#FDF8E8"/>
<path transform="translate(1006,360)" d="m0 0h20l28 1 36 4 1 4-8 51-1 4 9 1 19 4 25 7 20 7 18 7 4 2 3-9 19-42 1-2 6 1 16 8 19 10 26 16 9 6v2l5 2 12 9 14 11 10 9-3 5-10 11-7 8-9 10-7 8-2 3 30 30 9 11 12 15 12 17 4-1 45-30h2l13 21 9 16 1 4 39-1h22v-57h1v57l32-1h30v1l-24 1h-38v65h126v1l-111 2h-14l-1 65 58-1h207v1l-12 1h-132l-96 1h-25v64l200 1v-50h1v50h66l-1-68 1-33h1v33h51l14 1v1h-65v66h64v1h-64v66h64v1h-64v66h66v-40h2v92l-1 15h117l14 1v1h-63v64l-1 2-35 1h-31v66l-2 2v-69h-66v65h-1v-65l-2 1h-64v65h54v1l-14 1h-40v45h-1v-45l-49 1h-17v65h53v1l-53 1 1 66-1 24h-1v-24l-65 1-1 45h-1v-46h-66v33h-1v-33h-66v35h-1l-1-34h-63l-2-1v37l-1 12h-1l-1-48h-64l-1 48h-1v-49l-21 1h-43v-2h64v-14l1-17h-38v-69h37v-32h-66v-1l66-1v-13h-24v-76l-28-1v-17l13-1h62l5 1v17l-2 1h-25v23l1 66h27l38 1v-109h72l2 1v17l-6 1h-43l-1 20 39-1v18l-39 1v20l47-1 3 1v17h-5v15h65v-12h1l1 11 65 1v-65l-66-1 1 29 4 4h15l31-1v17l-23 2-14 1h-17l-11-4-5-4-4-8-1-37 1-25 4-8 7-6 11-3h50l2 1v17l-39 1-10 2-1 2-1 19h66v-48l2-1v49l23-1 1-40 3-1h16l5 1 1 37h33v-38h19l4 1v41l4-1h24v-201l-133 1v66l2-1h64v-43h1v43h65v1l-101 1-32 1h-46v-1l16-1h30v-66l-65 1-1 66 20 3 3 1v2l-8 1h-30l-19-2h-639l-93-1-17-3-4-1h-50l-10 1-35 1-17-1h-13l-20 2h-10v-2l-3-1h3v-67h-66l-268-1v-1l67-1 230 1 37 1v-66h-66l-204-1 3-2 227 1 40 1v-66h-25l-97-1v-1h110l12 1v-37l1-30h-43l-72-1v-1h81l34 1v-54h1v54l59 1 2-9 6-17 12-27 8-16 12-22 13-20 2-1 16 11-5 12-31 62-6 10-4 10-1 8 3 7-1 5-3 8-10-2-17-5 1-7 2-6h-54l-4-1v67h65v-22l1-26h1v49h-67v51l-1 15h29l-1-9 3-6 7-8 10-14 6-9 5-13 5-4 8-2 1-6 12-29 11-25v-2l-4-3v-7l5-12 42-84 10-19 3-8-2-3 5-12 5-7 5-3h7l11 7 3 1 14-25 17-28 14-22 18-27 8-9 5 1 7 6 3-7 3-3 19-9 9-4 4 1 11 26 11 25 9-3 28-10 25-7 11-3 22-3-5-31-3-21v-7l22-3z" fill="#E2E2E1"/>
<path transform="translate(794,414)" d="m0 0 5 1 8 7 3 9 2 17 1 3 22 5 23 6 27 9 9 4 3 7 22 5 4-1 2-1h8l6 4 4 5 5 12 5 17 4 16 6 8 11 13 13 17 3 3h66l48 1 3 7 12 40 13 43 2 6 3-1v-9l4-5 10-1h71l7 2 3 4 1 10 8 4 6 7 2 5v58l-3 8-4 5-8 4h-47l1 7 9 2 6-2 3 2 5-1 3-1 4 2 10-2 2 2h5l1-1 7 1 9 3 5 6 5 3 3 9 4 6v10l2 1v7l-4 1v11l-5 7-2 7-7 5-5 5h-5l7 3 10 3 13 8 10 4-1 2-10-4-7-1h-9l-3 1 11 7 2 4-12-2-6-3-10 1v2l7 2 12 7-2 1-5-2h-6l1 5 5 4 20 4h8l7 3 15 3 3 2h7l-16-16-5-7 12 2 5 3 4 6 18 5 22 4 23 3 19 5 22 5 32 9 13 2 42 8v2l-8 1h-30l-19-2h-639l-93-1-17-3-4-1h-50l-10 1-35 1-17-1h-13l-20 2h-10v-2l-3-1h3v-67h-66l-268-1v-1l67-1 230 1 37 1v-66h-66l-204-1 3-2 227 1 40 1v-66h-25l-97-1v-1h110l12 1v-37l1-30h-43l-72-1v-1h81l34 1v-54h1v54l59 1 2-9 6-17 12-27 8-16 12-22 13-20 2-1 16 11-5 12-31 62-6 10-4 10-1 8 3 7-1 5-3 8-10-2-17-5 1-7 2-6h-54l-4-1v67h65v-22l1-26h1v49h-67v51l-1 15h29l-1-9 3-6 7-8 10-14 6-9 5-13 5-4 8-2 1-6 12-29 11-25v-2l-4-3v-7l5-12 42-84 10-19 3-8-2-3 5-12 5-7 5-3h7l11 7 3 1 14-25 17-28 14-22 18-27z" fill="#0E1A35"/>
<path transform="translate(470,883)" d="m0 0h1l1 52 41 1 20 1 3 1v2l30-3h13l26 1 26-1 10-1h50l13 3 8 1 94 1h268l1 1v62h11v1h-11v66l-2-2v-63l-65-1v21l-1 3h16l16 1 9 3 6 7 3 9v27l-4 10-7 6-3 1 2 6 12 22 1 3h-25l-6-10-10-19-9-1v44h66l1 1v66h45v-34h20l5 11 12 30v2h2l3-10 13-32 1-1h20v68l-1 1h-14v-42l-2 1-12 31-5 9-7 1-3-3-11-27-4-11-1 30-1 11h-15v-34h-45v7h-1v-7h-4l8 24 2 5v5l-6 1-10-1-6-14h-23l-5 13-1 1h-15l-1-2 19-57 4-10h21l4 9 8 24 5 1-1-65-65-1v66h15v1h-17l-34 1h-7l-1 32-1 1h-14v-34h-8v41l-1 24h53l11 1v1h-63v130h-2v-130h-65l-1 64h65v1l-64 1-1 36h-1v-102h-66v70h-1v-70h-66v62h-1v-62h-66v51h-1l-1-31 1-20h-65l-1 45h-1l-1-45h-50l-15-1v43h-1l-1-42h-51l-14-1v42h-1l-1-41-59-1v-1h59v-38h1l1 38h65v-65l-7 1h-24l-5-1-2 4-4 3h-2l11 20 3 6-1 1h-16l-8-14-5-9-9-1v24h-15l-1-1v-68h18v-32l-2-1h2v-66h-65l1 25 2 7 3 1h12l21-1h12v17l-25 2-16 1h-13l-11-4-6-5-3-7-1-38 1-25 4-8 9-6 8-1v-25h-15v-2h15v-68l67-1z" fill="#E2E2E1"/>
<path transform="translate(1565,869)" d="m0 0h113v201l-28 1v-41l-23-1v38l-10 1h-23l-1-1v-37h-23l-1 40-1 1h-23l-1-48-1 48h-66v-19l4-4 8-1h39v-17h-52l-11 3-7 6-3 7-1 26 1 36 4 8 6 4 9 3h17l29-2h8v-17l-31 2h-15l-5-5v-29h66l1 1-1 65h-65l-1-4-1 4h-65v-15h5v-17h-50v-20l4-1h35l-1-17h-38v-21h50v-17h-67l-7-1v109h-65l-1-1-1-66v-23l4-1h23l1-17h-67l-12 1v9l-1 7h20l8 1v76h24v13l-15 1 15 1v32h-37v69h38v17l-1 14-64 1-1 1-1 59h-1v-59h-66v64l2 1h-2v41h-1v-41l-36 1h-27v-1l13-1h50v-64h-66v130h-1l-1-79v-51h-65v132l66-1h120v1l-53 1h-66v66l67-1 1 2-2 133-1 1h-65l-1-67-66-1v-67l-1-49v49l-1 1v66h-67l-51 1 51 1v66h-66v-34l1-17h-2v51h-66v-67l66-1v-124h1l1 8v48l65 1v-66h-65l-2 2v-4l67-1 1-1v-85l1-44 52-1-53-1v-24l1-41h8v34l14-1 1-32 4-1h13l27-1v-66h65l1 1v65h-5l-4-10-8-23-21-1-3 10-19 57v1h15l5-13 1-1h23l5 10 1 5h16l-4-13-6-17v-4h50v34h15l1-43 2 2 8 21 7 17v2l9-1 8-18 8-21 3-1v42l14-1 1-68-20 1-15 37-2 5h-2l-16-39-1-3-20-1v34h-45l-1-66-66-1v-44h9l12 22 4 7 25 1-10-18-6-11 1-3 7-4 5-8 1-4v-27l-4-11-6-5-7-2-26-1-6-1 1-24h65l1 1v63l1-65v-63h369l19 2h38v-2l-21-3-2-1v-67h66v66l-30 1h31l66-2-66 1v-66zm-479 134m-12 534 1 2z" fill="#E2E2E1"/>
<path transform="translate(1880)" d="m0 0h168v1626h-236v-87h67v-95l1-26h1v52l1 1 97 1 34 1v-338l1-63h-8v-2l7-1 1-64h-24v-2l23-1v-64h-4v-2h4v-65l-1-2 1-3v-62l-2-2h2v-65l-2-2h2l1-66h-26v-1h25v-200l-6-1v-1h6v-65l-58-1v-1h58v-65l-64-1-1 65 3 1h-3v65h-2v-132l-65 1v36l-2 2v-39h-59v-1h59v-66h-66l1 67-2 1v-68h-66v38h-1v-172h-66v64h-1v-144h1l1 11 65 1v-52h1v52h66v-62h1l1 6v34l-1 22h66v-61z" fill="#E3E3E2"/>
<path transform="translate(1812,1460)" d="m0 0h1v11h64v1l-18 1h-29l-17-1 1 17v35l-1 15h-1zm-805-38h1v50h65v1h-65v66h66l1 1v67l65-1 1-67h67v-45h1v45h65v1h-65v67h66v-69h50l2 2h-50v45l-1 22h66v-69h2v68h65v-67h66v1h-64v67h65v-68h66v1h-64v67l65-1 1-68 64 1v1h-63v67h66v-69h62l2 2h-63v67h66v-69l67 1v-40h2v39l65 1v87h-1812v-153l35-1 112-1h63v1l-42 1h-33v66h66v-46h1v46h65v1h-65v67h66v-69h2v25l-1 44h66v-69h2v68l65 1v-67h-64v-1h129v1h-63v66l65 1v-68h65v1h-63v67h65v-68l2-1 63 1v1h-63v67h65v-25l1-44 64 1v1h-63v67h65l1-69h66l1-50h1v51h66v-86h1v18h59v1l-5 1h-38l-16-1v67h64v1h-64v67h66v-51h2v17l-1 34h66v-66h-51l-1-2 53-1 66 1-1-67 1-1v-48z" fill="#E2E2E1"/>
<path transform="translate(1006,360)" d="m0 0h20l28 1 36 4 1 4-8 51-1 4 9 1 19 4 25 7 20 7 18 7 4 2 3-9 19-42 1-2 6 1 16 8 19 10 26 16 9 6v2l5 2 12 9 14 11 10 9-3 5-10 11-7 8-9 10-7 8-2 3 30 30 9 11 12 15 12 17 4-1 45-30h2l13 21 9 16 12 24 10 24 9 25 4 16-8 3-30 8-17 5v4l7 33 4 32 1 15v14l20-1h40l-2 44-3 28-7 39-10-2-8-1-2-1h-21l-22-6-7 2h-10l-2 2h-7l-14-4-8-1-20-5-2-2 6-26 4-28 1-11v-36l-3-30-4-24-2-7-7-24-10-27-8-16-10-19-12-18-12-16-12-14-16-17-12-11-14-11-18-13-20-12-21-11-21-9-24-8-24-6-9-1-1-1-27-3-22-1h-16l-27 2-26 4h-4l-7-13-7-6-7-2h-7l-6 2-15-4-5-5-14-7-25-8-39-10-1-1-3-17-4-11-2-3 17-9 11-5 6-1 7 15 13 30 3 7 9-3 28-10 25-7 11-3 22-3-5-31-3-21v-7l22-3z" fill="#AF5622"/>
<path transform="translate(809,527)" d="m0 0 19 9 20 10 5 3 15 33 10 23-1 11 5 13 9 19 12 28 13 28 16 34 6 13v17h17l50 1v9h-6l-4-1-6 4-7 2v2l42 3 4 2h-16l-35-1-4 4v3l24 3 17 2 2 2h-48l-2 7 30 2 18 2v1l-11 1-24 1h-14v8l41 2 9 1-4 2-28 1-15 2 1 6 1 1h52v1l-44 4h-4l3 6 32 1v1l-23 2-16 2-5-1-2-1h-27l-10-5-7-7-5-10-2-9v-13l4-13 6-8 8-7 5-2 33-1 1-3-5-2h-3l-1 2h-6l-1-2-5 1-1 1h-5l-1-3-5 2-1 1h-6l-1-2h-5v2h-6v-2h-6v2h-6l-4-2-3 2h-5l-5-2-2 2h-6l-1-2-4 1-7 1-2-2-4 1-1 1h-5l-5-1-3 3-8 2-2 3 17 1 30 3v1l-35-1h-19l-2 6 9 2 38 4v1h-49l-2 7 39 3 10 2v1l-35 1h-15l1 8 11 1 40 2v1l-5 1-38 2-6 1 1 7h52v1l-16 2-26 2-5 1 3 5 5 1h41v1l-34 2h-6l3 3 6 1v2l-13 4-9 2-11 6-5 4 32-2 21-2 3-2h26l16-3 4 1-12 13-2 3 5-1-5 5-8 7-3 9 24-8 13-5 15-4h5l-4 4-16 10-10 8-6-1-11 6h-5l-3-2-12 1-16 6-2-2-2-7-7 1-9 4h-2v-3l-20 7-5 1 2-10 6-5 10-6 12-5 17-12 4-4-13 1-19 5-14 1-18 6-9 6-5 8-3 5-7 4-8-1-11 5-8 2h-4l1-5 8-8 19-6 6-4 6-11 2-2-5 1-9 10-10 3-10 2-10 7-10 5-21 7-36 7-27 1-22 2-20 1-13 2-30 1-21 4h-10v-30l1-35 41-1 2 7 5 26 3 14h8l8-3 21 1 9 1-11-6-13-11-8-10-7-11-8-17-6-17v-11l1-10-7-8v15l3 39h-42l1-65 30-1 5 4 9 3 10 13 1 5-3 12 6 18 11 23 10 13 10 9 11 5 4 1h13l15-5 19-10 16-12 14-12 8-11 16-24-5-5h-5l1-3-7-10-8-15-2-5 1-4v-9l-4-4-7-3h-9l-5-5-5-3-10-1-7 1v-2l-7 2-8 7-7 1h7l12-3h10l6 4 3 3 7 3 7 9v1l-17 1-5-2h-5l-6-3-1 4-1 2 10 1 4 2 2 3 3 1 4 6 2 6v4l-4-1-6-3 4 9v3l-2 5-4-1-22-11-14-8v-3l10-4 9 2 4 2-3-5v-2l-11-1-14 1 1-5 7-9h-3l-9 3-4-1 7-7-10 4 8-14 18-30 14-21 16-23 10-14 14-19 15-20 11-14 13-16 11-14 14-17 9-11 12-15 9-13 6-12z" fill="#FAF6E8"/>
<path transform="translate(809,415)" d="m0 0 3 1 4 11 3 17 39 10 30 10 9 5 3 3v2l18 4 5-2h7l7 2 8 7 6 11v2l22-4 18-2 17-1h16l33 2 16 2 5 1 25 6 23 7 21 9 23 11 20 12 17 12 16 13 8 7 10 9 16 17 9 11 10 13 12 18 10 18 8 16 10 25 8 26 2 10 2 7 4 26 2 22v36l-3 27-5 26-3 12 5 2 19 5 9 1 10 3h7l2-2h10l8-2 21 6h21l5 2h8l7 3 1-11 5-28h16l-1 65h-8l-13-3-13-2-28-8-35-8-6-2-30-4-18-4-15-4-5-7-8-3-7-1 14 15 7 6-1 2h-7l-6-3-15-3-4-2h-8l-20-4-6-5-1-5 1-1 9 1-7-4-8-4v-2l10-2 10 4 7 1-4-4-9-6 4-2h9l10 2 7 3-1-1-10-4-13-8-12-3-4-3 3-1 5-1 5-6 4-2 3-8 4-6v-7l1-4 3-1 1-7-3-1v-10l-5-8-2-7-6-4-4-5-8-2-7-1-1 1h-5l-3-2-9 2-5-2-4 2-4-1-3-1-5 2-9-2-1-1v-7l47-1 8-4 5-8 1-4v-58l-4-8-8-6-4-2-1-10-3-4-6-1h-71l-10 1-3 4v10l-4 1-3-7-17-56-10-33-48-1h-66l-8-9-11-14-11-13-5-9-6-24-6-16-4-6-6-4h-8l-3 2-25-5-3-6v-2l-39-13-42-10-2-4-2-17-2-6v-7z" fill="#FCF8E8"/>
<path transform="translate(852,571)" d="m0 0 3 1 14 31 1 6-1 7 21 49 19 41 15 33 7 16v12l-34 1h-40l-11 2-10 5-11 11-7 14-2 7v21l5 15 5 8 4 6-13 7-18 12h-4-9l-8 5-5 7-4 1h-8l6-8 3-7v-12l-3-8-3-3v-2l8-4 7-8 3-6v-8l-5-10-7-7-11-7-9-1-6 3-2 4 1 7 4 6v5l-5-2-8-9-4-10 2-28 6-36 8-26 11-27 13-25 14-21 11-14 9-11 5-5 9-10 8-7 9-8z" fill="#F69930"/>
<path transform="translate(1074,510)" d="m0 0h1v12l8 1 23 6 20 7 24 11 17 9 17 11 21 16 14 12 14 14 18 22 12 17 14 23 12 27 7 19 7 27 3 16 3 27 1 15v16l-2 24-5 29-3 11-6-1-5-9-8-5-14-7-5-3v-2l5-5 5-10 3-11v-24l-4-13-5-8-7-8-13-7 6-9 2-6v-64l-4-9-6-7-7-4 1-5-5-8-5-3h-89l-5 1-8-25-16-52-1-4-20-1-46-1h-36l-16-1-28-35-3-9v-4l8-2 23-3 17-2 27 1 32 3 7 1z" fill="#F69930"/>
<path transform="translate(809,527)" d="m0 0 19 9 20 10 5 3 15 33 10 23-1 11 5 13 9 19 12 28 13 28 16 34 6 13v11l-6-1-2-13-3-4-3-3-15-32-15-33-15-34-11-26 1-10-11-25-4-9-4 2-12 9-11 9-7 7-5 4-7 8-3 1-2 5-9 10-9 12-10 15-10 17-11 23-10 27-5 17-6 36-2 28h-12l-2-5 1-4v-9l-4-4-7-3h-9l-5-5-5-3-10-1-7 1v-2l-7 2-8 7-7 1h7l12-3h10l6 4 3 3 7 3 7 9v1l-17 1-5-2h-5l-6-3-1 4-1 2 10 1 4 2 2 3 3 1 4 6 2 6v4l-4-1-6-3 4 9v3l-2 5-4-1-22-11-14-8v-3l10-4 9 2 4 2-3-5v-2l-11-1-14 1 1-5 7-9h-3l-9 3-4-1 7-7-10 4 8-14 18-30 14-21 16-23 10-14 14-19 15-20 11-14 13-16 11-14 14-17 9-11 12-15 9-13 6-12z" fill="#FCF7E8"/>
<path transform="translate(1402,736)" d="m0 0h7 2 65l1 131 1-64h67l3-1h130v66h-134l-1 1h-81l2-26 2-40 1-4-40 1h-20l-3-39-2-15z" fill="#FDF8E9"/>
<path transform="translate(672,1139)" d="m0 0h65l1 1-1 66v34h15v-23l1-1h8l5 8 8 15 17 1-4-8-8-14-1-5 7-6 3-7v-12l-4-8-1-3-10-4-6-1-28-1v-32h66v66l-15 1 15 1v64l-1 1h-64l-1-1-1-26v26l-1 1h-65-4l-63-1v-65h28l1 1 2 12 6 11 6 5 10 4h15l10-4 7-6 6-13h-16l-3 6-4 3-3 1h-9l-6-4-4-6-1-3v-15l4-8 5-4 2-1h10l5 3 3 4v4h17l-5-13-4-5-15-8z" fill="#FDF8E8"/>
<path transform="translate(537,1126)" d="m0 0h1v12h63v1h-63v32l-1 34h7v-22l1-12h47v13l-2 1-29-1v15h29v6h13v-54l1-12h1v66h28v1h-28v65h65l1-29h1v30l65-1v-26l2-2 1 28h64l1-64h1l1 64h65l-1-32-4 1h-17l-10-4-7-7-3-10v-48h16l1 47 3 5 4 2h10l5-3 2-4 1-47h15l1 1v33h51v-20l1-1h8l1 1v19l-1 2h-7v41l-1 24h53l11 1v1h-63v130h-2v-130h-65l-1 64h65v1l-64 1-1 36h-1v-102h-66v70h-1v-70h-66v62h-1v-62h-66v51h-1l-1-31 1-20h-65l-1 45h-1l-1-45h-50l-15-1v43h-1l-1-42h-51l-14-1v42h-1l-1-41-59-1v-1h59v-38h1l1 38h65v-65l-7 1h-24l-5-1-2 4-4 3h-2l11 20 3 6-1 1h-16l-8-14-5-9-9-1v24h-15l-1-1v-68h31l9 2 6 4 5 6 2 6v9l-2 7h34v-66h-65v-1h65v-11z" fill="#E3E3E2"/>
<path transform="translate(1565,869)" d="m0 0h113v134h-66v-68l-67 1v-66z" fill="#FEF9E9"/>
<path transform="translate(202,936)" d="m0 0h66l1 67h45l21 1v66l-133-1z" fill="#FEF9E9"/>
<path transform="translate(1409,1138)" d="m0 0 2 1v66h35l-1-20-20-1v-13h57v13l-5 1-16-1v21h57l-1 2-39-1v65h66v-31h1v31h65v-54l1-11h-28v-1h27v-26l1-40h1v65h53v1l-53 1 1 66-1 24h-1v-24l-65 1-1 45h-1v-46h-66v33h-1v-33h-66v35h-1l-1-34h-63l-2-1v37l-1 12h-1l-1-48h-64l-1 48h-1v-49l-21 1h-43v-2h64v-14l1-17h-38v-69h47v13l-10 1-21-1v15h28v13h-28v14h31v13l-2 1h-6v30l65 1v-28h2v28h65v-65l-23 1-1 32-1 1h-11l-5-5-14-20-9-13v-2h-2v40h-15l-1-1v-59l1-9h13l11 15 16 24 1-39h16v34h24z" fill="#E3E3E2"/>
<path transform="translate(1411 1e3)" d="m0 0h65v25l-11 3-7 6-3 7-1 26 1 36 4 8 6 4 9 3h17l29-2h8v-17l-31 2h-15l-5-5v-29h66l1 1-1 65h-65l-1-4-1 4h-65v-15h5v-17h-50v-20l4-1h35l-1-17h-38v-21h50v-17l-6-1v-10z" fill="#FDF8E8"/>
<path transform="translate(1277,1139)" d="m0 0h65v32h-14v68l15 1v-40h2l16 24 9 12 1 3h13l1-32 1-1h23v65h-65v-28h-2v28h-66l1-31 8-1v-13h-31v-14h28v-13h-28v-15h31v-13h-8z" fill="#FDF8E8"/>
<path transform="translate(961,531)" d="m0 0 2 3 10 13 13 16 5 7 17 1h44l37 1 20 1 3 8 15 49 7 23v2l5-2h89l6 4 5 8-2 5 5 2 8 7 4 8 1 3v64l-4 9-4 6 12 6 10 11 5 11 2 8v24l-5 16-6 9-3 1v2l5 2 16 8 8 6 3 7 6 2 2-11 1-2h25l-5 23 5 2 19 5 9 1 10 3h7l2-2h10l8-2 21 6h21l5 2h8l7 3 1-11 5-28h16l-1 65h-8l-13-3-13-2-28-8-35-8-6-2-30-4-18-4-15-4-5-7-8-3-7-1 14 15 7 6-1 2h-7l-6-3-15-3-4-2h-8l-20-4-6-5-1-5 1-1 9 1-7-4-8-4v-2l10-2 10 4 7 1-4-4-9-6 4-2h9l10 2 7 3-1-1-10-4-13-8-12-3-4-3 3-1 5-1 5-6 4-2 3-8 4-6v-7l1-4 3-1 1-7-3-1v-10l-5-8-2-7-6-4-4-5-8-2-7-1-1 1h-5l-3-2-9 2-5-2-4 2-4-1-3-1-5 2-9-2-1-1v-7l47-1 8-4 5-8 1-4v-58l-4-8-8-6-4-2-1-10-3-4-6-1h-71l-10 1-3 4v10l-4 1-3-7-17-56-10-33-48-1h-66l-8-9-11-14-11-13-5-9 1-4 5 1z" fill="#FEF9E9"/>
<path transform="translate(1544,1170)" d="m0 0h11l10 3 6 4 7 8 4 10 1 11h28l-1 65h-132v-65h39l3-16 6-10 8-6z" fill="#0F1A34"/>
<path transform="translate(1142,1139)" d="m0 0h66v132l-5 1h-60-2-66v-32h5l-4-13-6-17v-4h50v34h15l1-43 2 2 8 21 7 17v2l9-1 8-18 8-21 3-1v42l14-1 1-68-20 1-15 37-2 5h-2l-16-39z" fill="#FDF8E8"/>
<path transform="translate(975,592)" d="m0 0h74l-1 53-7 7-7 10v2l5-1 5-4 1-2h2v11l-9 11-13 18-3 7 9-7 13-14 3-3v48l-2 2h-40l2-4 6-9 2-5-5 2-9 8-7 8h-12l6-8 14-17 11-14 9-11 5-6 1-5-5 2-14 12-13 12-21 21-7 8-6 7h-8v-17l18-110 2-11z" fill="#FDF8E9"/>
<path transform="translate(941,1273)" d="m0 0h65l1 132h-64l-3-2v-86z" fill="#FDF8E8"/>
<path transform="translate(641,936)" d="m0 0h23l7 2v65h-66l-1-24-1 24h-66l1-63 28-3h13l26 1 26-1z" fill="#FDF8E8"/>
<path transform="translate(1478,870)" d="m0 0h66v66l-30 1h30v66h-66v-58l15-2h8v-2l-21-3-2-1z" fill="#FDF8E8"/>
<path transform="translate(1276 1e3)" d="m0 0h66v133h-65l-1-1-1-66v-23l4-1h23l1-17h-22l-5-1z" fill="#FEF9E9"/>
<path transform="translate(605 1e3)" d="m0 0h65l1 1v61l1-62h133v24l-7 1h-28l-10 2-6 3-5 6-2 5v25h-43l-1-41h-22v55l-3-1-10-18-12-21-9-15-24-1v42h-18z" fill="#FDF8E8"/>
<path transform="translate(566,803)" d="m0 0 4 2 7 3 5 2 10 13 1 5-3 12 6 18 11 23 10 13 10 9 11 5 4 1h13l15-5 19-10 16-12 7-4h4l-1 5-11 9-18 12-19 9-9 3 13-1 8-1 5 1 10-4h10l-2 4-6 3v4l-16 3-27 1-22 2-20 1-13 2-30 1-21 4h-10v-30l1-35 41-1 2 7 5 26 3 14h8l8-3 21 1 9 1-11-6-13-11-8-10-7-11-8-17-6-17v-11l1-10-7-8v15l3 39h-42l1-65z" fill="#FDF8E9"/>
<path transform="translate(1374,941)" d="m0 0h70l33 4-1 58h-66v-59l-1 59h-66l1-61z" fill="#FDF8E8"/>
<path transform="translate(2015,1072)" d="m0 0h20v65l-7 1 7 1v65 2 132 2 65 2 65l-1 1h-19z" fill="#FDF8E8"/>
<path transform="translate(520,1029)" d="m0 0h31l15 2 8 5 5 8 1 5 1 23-1 32-3 9-4 5-7 4-8 2h-44l-11-4-7-6-3-9v-56l3-9 5-6 10-4z" fill="#101A34"/>
<path transform="translate(1211,781)" d="m0 0h21l9 3 7 6 5 8 4 14v12l-3 12-7 11-9 6-5 2h-23l-68-1v-50l16-1-16-1v-20h66v20h-38l-7-6-2-1h-10l-1 1 11 4 5 7 2 7v9l-4 10-6 5-5 2h-5l4 2h9l8-5 5-9 1-5v-8l-2-7v-4h36l26-1-26-1v-20z" fill="#FCF7E8"/>
<path transform="translate(1545 1e3)" d="m0 0 66 1 1-1h66v66l-28 1v-41l-23-1v38l-10 1h-23l-1-1v-37h-23l-1 40-1 1h-23z" fill="#FDF8E9"/>
<path transform="translate(2015,333)" d="m0 0h17l3 1v65l-2 1 2 1v65 2 65 2 65 2 65l-1 1h-19z" fill="#FDF8E8"/>
<path transform="translate(975,1029)" d="m0 0h48l16 1 9 3 6 7 3 9v27l-4 10-7 6-3 1 2 6 12 22 1 3h-25l-6-10-10-19h-11l-8-1v29l-1 1h-23v-94z" fill="#0E1A35"/>
<path transform="translate(651,556)" d="m0 0 7 4 10 7-5 12-31 62-6 10-4 10-1 8 3 7-1 5-3 8-10-2-17-5 1-7 2-6h-54l-4-1v67h65v-22l1-26h1v49h-67v51l-1 15h29l1-2-1 4h-28v64l41 1-3-23-1-16v-16l6 5 3 4-1 10v11l7 19 9 19 9 12 7 8 14 10 8 4-4 1-23-2h-5l-8 3-8-1-4-14-6-32h-41v35l-1 30 4 1h-5v-67h-66l-268-1v-1l67-1 230 1 37 1v-66h-66l-204-1 3-2 227 1 40 1v-66h-25l-97-1v-1h110l12 1v-37l1-30h-43l-72-1v-1h81l34 1v-54h1v54l59 1 2-9 6-17 12-27 8-16 12-22 13-20z" fill="#E3E3E2"/>
<path transform="translate(1008,1139)" d="m0 0h65l1 1v65h-5l-4-10-8-23-21-1-3 10-19 57v1h15l5-13 1-1h23l5 10 1 5h9v32h-65z" fill="#FDF8E8"/>
<path transform="translate(815,538)" d="m0 0 6 2 12 7 4 2-5 5-16 13-13 12-16 16-7 8-12 15-14 21-8 13-12 23-11 27-7 23-6 26-3 18-7-1v-2l-5-2-12-5-10 1-7-1-8 4-4 4h-6l2-5 13-21 9-14 11-16 12-17 12-16 14-19 9-12 11-14 9-11 13-16 22-28 12-14 12-16z" fill="#B15822"/>
<path transform="translate(750,797)" d="m0 0 9 1 11 7 8 8 5 10v8l-6 10-8 7-5 1 6 9 1 4v12l-5 10-4 4h7l5-2 6-8 6-3h9l-2 5-9 6-7 8-10 3-10 2-10 7-10 5-21 7-15 3h-5v-4l3-2h3l1-3h-9l-10 4-10-1-12 2h-6l2-2 16-6 17-9 14-10 10-8 1-4-6 1 4-5 7-6 22-33-5-5h-5l1-3-7-10-7-13v-2h10l7 13 8 7 2 1-2-6-4-8 1-6 5-5z" fill="#FBF6E7"/>
<path transform="translate(809,527)" d="m0 0 19 9 20 10 5 3 15 33 10 23-1 11 5 13 9 19 12 28 13 28 16 34 6 13v11l-6-1-2-13-3-4-3-3-15-32-15-33-15-34-11-26 1-10-11-25-4-9-4 2-12 9-11 9-7 7-5 4-7 8h-4v-8l-23-1 6-8 24-24 11-9 14-11-4-3-15-8h-2l-8 13-11 14-11 13-11 14-13 16-11 14-14 17-12 16-13 18-13 17-12 17-13 19-9 14-11 18-5 9 4 1h-7l-1-4 4-14 11-17 8-12 16-23 10-14 14-19 15-20 11-14 13-16 11-14 14-17 9-11 12-15 9-13 6-12z" fill="#FDF8E8"/>
<path transform="translate(1545,1072)" d="m0 0h24v52l23-1 1-37 20-1h12l2 1v38l22-1 1-51h28v64l-1 1h-66l-18 1h-48z" fill="#FDF8E9"/>
<path transform="translate(623,1029)" d="m0 0h24l6 9 15 27 6 10 5 9 2 1-1-11v-44l1-1h22l1 1v47l-1 47h-24l-11-19-16-28-5-8-1 55h-23l-1-53z" fill="#0C1935"/>
<path transform="translate(646,1068)" d="m0 0 4 4 24 42 5 8v2h24v-47l1-5h34v65l-1 1h-65l-1-17-1 17h-65v-66h17l1 1v51h23z" fill="#FDF8E8"/>
<path transform="translate(926,743)" d="m0 0h3l2 7 1 4v7l6 1v6h17l50 1v9h-6l-4-1-6 4-7 2v2l42 3 4 2h-16l-35-1-4 4v3l24 3 17 2 2 2h-48l-2 7 30 2 18 2v1l-11 1-24 1h-14v8l41 2 9 1-4 2-28 1-15 2 1 6 1 1h52v1l-44 4h-4l3 6 32 1v1l-23 2-16 2-5-1-2-1h-27l-10-5-7-7-5-10-2-9v-13l4-13 6-8 8-7 5-2 33-1 1-3-5-2h-3l-1 2h-6l-1-2-5 1-1 1h-5l-1-3-6 2v-2l-6-1-2-4-30-1v-1h34l-1-12-4-9z" fill="#F9F5E7"/>
<path transform="translate(1075,782)" d="m0 0h66v20h-50l-2-4-4-2-3-1h-10l-3 2 10 1 7 7 3 9v10l-5 10-6 5-9 1 4 2h9l8-5 5-9 1-4v-9l-2-11h47v50h-66l-8-4-8-9-4-9-1-5v-19l5-13 8-9z" fill="#FDF8E8"/>
<path transform="translate(1570,1029)" d="m0 0h18l5 1 1 37h33v-38h19l4 1v93l-1 1h-22v-38h-34v37l-1 1h-23v-94z" fill="#0E1A35"/>
<path transform="translate(1101,1029)" d="m0 0h22l1 1 1 72 2 2 4 1h19l7-1 3-3v-30l1-42h22l1 1 1 42-1 34-5 10-6 5-10 3-22 1-20-1-11-4-6-5-3-6-1-6v-73z" fill="#0F1A34"/>
<path transform="translate(1141,517)" d="m0 0h1v16h31l2-1 18 11 18 13 17 14 15 14 14 15 9 11 10 13 12 18 10 18 4 8v2h-27l-13-21-10-14-10-13-9-10-7-8-10-10-11-9-18-14-15-10-18-10-14-7 1-8h-13l-4-2h17z" fill="#FAF6E8"/>
<path transform="translate(806 1e3)" d="m0 0h66v24l-14 1-2 1v16h19l9 1v23h-10l-1-17-1 17h-55l-11-3h-30l-5-3-2-3v-8l3-5 3-2h43v-17l-12-1z" fill="#FDF8E9"/>
<path transform="translate(770,1029)" d="m0 0h48l1 1v17l-2 1h-42l-4 3-1 3v8l3 4 3 1h30l13 4 5 6 3 7v22l-3 8-5 5-9 4-4 1h-33l-25-2-1-1v-16h45l9-1 1-1 2-17-40-1-9-3-5-5-3-5-1-4v-22l4-8 7-6 6-2z" fill="#0D1935"/>
<path transform="translate(1342,1029)" d="m0 0h72l2 1v17l-6 1h-43l-1 20 39-1v18l-39 1v20l47-1 3 1v17l-6 1h-68z" fill="#0E1A35"/>
<path transform="translate(739,332)" d="m0 0h66v67l-4 1h-51l-11-1z" fill="#FEF9E9"/>
<path transform="translate(471,1072)" d="m0 0h22l1 33 3 9 8 6 9 3h44l10-3 6-4 4-7 1-5 1-32h23l1 4-1 62h-65l-1-11-1 11h-65l-1-3v-50z" fill="#FDF8E8"/>
<path transform="translate(1813,1540)" d="m0 0h66v67h-66z" fill="#FEF9E9"/>
<path transform="translate(1746,1540)" d="m0 0h66v67h-66z" fill="#FEF9E9"/>
<path transform="translate(1679,1540)" d="m0 0h66v67h-66z" fill="#FEF9E9"/>
<path transform="translate(1142,1540)" d="m0 0h66v67h-66z" fill="#FEF9E9"/>
<path transform="translate(806,1540)" d="m0 0h66v67h-66z" fill="#FEF9E9"/>
<path transform="translate(873,333)" d="m0 0h66v67h-66z" fill="#FEF9E9"/>
<path transform="translate(739,1540)" d="m0 0h66v66l-1 1h-65z" fill="#FEF9E9"/>
<path transform="translate(672,1540)" d="m0 0h66v66l-1 1h-65z" fill="#FEF9E9"/>
<path transform="translate(135,1540)" d="m0 0h66v66l-1 1h-65z" fill="#FEF9E9"/>
<path transform="translate(672,1139)" d="m0 0h65l1 1-1 65-1 1h-64v17l-2 1v-18h-20v-8l4-8 5-4 2-1h10l5 3 3 4v4h17l-5-13-4-5-15-8z" fill="#FDF8E8"/>
<path transform="translate(0,601)" d="m0 0h67v66l-64 1-3-1z" fill="#FEF9E9"/>
<path transform="translate(50,1473)" d="m0 0h16l1 1v65l-1 1h-66v-66z" fill="#FEF9E9"/>
<path transform="translate(36,668)" d="m0 0h30l1 1v65l-15 1h-52v-66z" fill="#FEF9E9"/>
<path transform="translate(1813,667)" d="m0 0h66v67h-65l-1-1z" fill="#FEF9E9"/>
<path transform="translate(1576,936)" d="m0 0h35v67h-66v-66z" fill="#FEF9E9"/>
<path transform="translate(1106,1540)" d="m0 0h35v66l-1 1h-65v-66z" fill="#FEF9E9"/>
<path transform="translate(0,534)" d="m0 0h67v66h-67z" fill="#FEF9E9"/>
<path transform="translate(33,1406)" d="m0 0h33l1 1v65l-32 1h-35v-66z" fill="#FEF9E9"/>
<path transform="translate(0,1205)" d="m0 0h67v65l-1 1h-66z" fill="#FEF9E9"/>
<path transform="translate(102,1540)" d="m0 0h32v59l-1 8h-65v-66z" fill="#FEF9E9"/>
<path transform="translate(1118,265)" d="m0 0h23v67h-66v-66z" fill="#FEF9E9"/>
<path transform="translate(337,1539)" d="m0 0 65 1v67h-65l-1-1v-21z" fill="#FEF9E9"/>
<path transform="translate(0,736)" d="m0 0h66l1 2-1 64h-66z" fill="#FEF9E9"/>
<path transform="translate(122,667)" d="m0 0h12v67h-66v-66z" fill="#FEF9E9"/>
<path transform="translate(404,936)" d="m0 0h57l8 1v66h-66v-20z" fill="#FEF9E9"/>
<path transform="translate(1948,1473)" d="m0 0 65 1 1 1v63l-1 2h-65z" fill="#FEF9E9"/>
<path transform="translate(1712 1e3)" d="m0 0h33v66l-28 1h-38v-66z" fill="#FEF9E9"/>
<path transform="translate(0,1138)" d="m0 0h67l-1 66h-66z" fill="#FEF9E9"/>
<path transform="translate(0,1541)" d="m0 0h66v66h-66z" fill="#FEF9E9"/>
<path transform="translate(1075,1473)" d="m0 0h66v66h-66z" fill="#FEF9E9"/>
<path transform="translate(1008,1473)" d="m0 0h66v66h-66z" fill="#FEF9E9"/>
<path transform="translate(68,1473)" d="m0 0h66v66h-66z" fill="#FEF9E9"/>
<path transform="translate(1008,1406)" d="m0 0h66v66h-66z" fill="#FEF9E9"/>
<path transform="translate(1746 1e3)" d="m0 0h66v66h-66z" fill="#FEF9E9"/>
<path transform="translate(0,937)" d="m0 0h66v66h-66z" fill="#FEF9E9"/>
<path transform="translate(1746,936)" d="m0 0h66v66h-66z" fill="#FEF9E9"/>
<path transform="translate(1679,936)" d="m0 0h66v66h-66z" fill="#FEF9E9"/>
<path transform="translate(0,870)" d="m0 0h66v66h-66z" fill="#FEF9E9"/>
<path transform="translate(1746,869)" d="m0 0h66v66h-66z" fill="#FEF9E9"/>
<path transform="translate(1679,869)" d="m0 0h66v66h-66z" fill="#FEF9E9"/>
<path transform="translate(0,803)" d="m0 0h66v66h-66z" fill="#FEF9E9"/>
<path transform="translate(1746,802)" d="m0 0h66v66h-66z" fill="#FEF9E9"/>
<path transform="translate(1679,802)" d="m0 0h66v66h-66z" fill="#FEF9E9"/>
<path transform="translate(135,802)" d="m0 0h66v66h-66z" fill="#FEF9E9"/>
<path transform="translate(1746,735)" d="m0 0h66v66h-66z" fill="#FEF9E9"/>
<path transform="translate(135,735)" d="m0 0h66v66h-66z" fill="#FEF9E9"/>
<path transform="translate(1142,265)" d="m0 0h66v66h-66z" fill="#FEF9E9"/>
<path transform="translate(806,265)" d="m0 0h66v66h-66z" fill="#FEF9E9"/>
<path transform="translate(739,265)" d="m0 0h66v66h-66z" fill="#FEF9E9"/>
<path transform="translate(0,199)" d="m0 0h66v66h-66z" fill="#FEF9E9"/>
<path transform="translate(1813,198)" d="m0 0h66v66h-66z" fill="#FEF9E9"/>
<path transform="translate(1746,198)" d="m0 0h66v66h-66z" fill="#FEF9E9"/>
<path transform="translate(1142,198)" d="m0 0h66v66h-66z" fill="#FEF9E9"/>
<path transform="translate(806,198)" d="m0 0h66v66h-66z" fill="#FEF9E9"/>
<path transform="translate(739,198)" d="m0 0h66v66h-66z" fill="#FEF9E9"/>
<path transform="translate(135,198)" d="m0 0h66v66h-66z" fill="#FEF9E9"/>
<path transform="translate(0,132)" d="m0 0h66v66h-66z" fill="#FEF9E9"/>
<path transform="translate(1746,131)" d="m0 0h66v66h-66z" fill="#FEF9E9"/>
<path transform="translate(739,131)" d="m0 0h66v66h-66z" fill="#FEF9E9"/>
<path transform="translate(0,65)" d="m0 0h66v66h-66z" fill="#FEF9E9"/>
<path transform="translate(1746,64)" d="m0 0h66v66h-66z" fill="#FEF9E9"/>
<path transform="translate(1679,64)" d="m0 0h66v66h-66z" fill="#FEF9E9"/>
<path transform="translate(1142,64)" d="m0 0h66v66h-66z" fill="#FEF9E9"/>
<path transform="translate(806,64)" d="m0 0h66v66h-66z" fill="#FEF9E9"/>
<path transform="translate(739,64)" d="m0 0h66v66h-66z" fill="#FEF9E9"/>
<path transform="translate(135,64)" d="m0 0h66v66h-66z" fill="#FEF9E9"/>
<path transform="translate(806,131)" d="m0 0h66v66h-66z" fill="#FEF9E9"/>
<path transform="translate(1948,735)" d="m0 0 65 1 1 1v62l-1 3h-65l-1-2z" fill="#FEF9E9"/>
<path transform="translate(874,1540)" d="m0 0 65 1v66h-66v-66z" fill="#FEF9E9"/>
<path transform="translate(1948,870)" d="m0 0h65l1 1v63l-1 2h-65z" fill="#FEF9E9"/>
<path transform="translate(0,266)" d="m0 0h66v66h-66z" fill="#FEF9E9"/>
<path transform="translate(1948,132)" d="m0 0h65l1 1v65h-65l-1-1z" fill="#FEF9E9"/>
<path transform="translate(1948,65)" d="m0 0h65l1 1v65h-66z" fill="#FEF9E9"/>
<path transform="translate(1948,803)" d="m0 0h65l1 1v62l-1 3h-65z" fill="#FEF9E9"/>
<path transform="translate(68,735)" d="m0 0h66v66l-66 1z" fill="#FEF9E9"/>
<path transform="translate(135,131)" d="m0 0h66v66h-66z" fill="#FEF9E9"/>
<path transform="translate(873,265)" d="m0 0h66v67h-32l-34-1z" fill="#FEF9E9"/>
<path transform="translate(1948,937)" d="m0 0h65l1 1v65h-66z" fill="#FEF9E9"/>
<path transform="translate(1142,131)" d="m0 0h66v66h-66z" fill="#FEF9E9"/>
<path transform="translate(135,869)" d="m0 0h66v66h-66z" fill="#FEF9E9"/>
<path transform="translate(4 1e3)" d="m0 0h62v66h-66v-65z" fill="#FEF9E9"/>
<path transform="translate(1948,199)" d="m0 0h65l1 1v65h-50l-16-1z" fill="#FEF9E9"/>
<path transform="translate(1948,266)" d="m0 0h65l1 1v65h-48l-18-1z" fill="#FEF9E9"/>
<path transform="translate(1948,1541)" d="m0 0h65l1 1v45l-1 20h-65z" fill="#FEF9E9"/>
<path transform="translate(1813,131)" d="m0 0h66v66h-66z" fill="#FEF9E9"/>
<path transform="translate(1813,64)" d="m0 0h66v66h-66z" fill="#FEF9E9"/>
<path transform="translate(1881,1540)" d="m0 0h24l41 1v66h-66v-19z" fill="#FEF9E9"/>
<path transform="translate(1008,1541)" d="m0 0h66v41l-1 25h-65z" fill="#FEF9E9"/>
<path transform="translate(25,1071)" d="m0 0h41v66h-66v-65z" fill="#FEF9E9"/>
<path transform="translate(1948 1e3)" d="m0 0h42l24 1v65h-66z" fill="#FEF9E9"/>
<path transform="translate(1813,735)" d="m0 0h66v66h-66z" fill="#FEF9E9"/>
<path transform="translate(1813,802)" d="m0 0h61l5 1v65h-66z" fill="#FEF9E9"/>
<path transform="translate(873,1473)" d="m0 0h66v66h-66z" fill="#FEF9E9"/>
<path transform="translate(1008,266)" d="m0 0h66v35l-1 31h-65z" fill="#FEF9E9"/>
<path transform="translate(68,937)" d="m0 0h66v65l-3 1h-63z" fill="#FEF9E9"/>
<path transform="translate(135 1e3)" d="m0 0h66v66h-66z" fill="#FEF9E9"/>
<path transform="translate(135,936)" d="m0 0h66v66h-66z" fill="#FEF9E9"/>
<path transform="translate(1813,869)" d="m0 0h47l19 1v66l-66-1z" fill="#FEF9E9"/>
<path transform="translate(109,265)" d="m0 0h25v66h-66v-65z" fill="#FEF9E9"/>
<path transform="translate(941,1541)" d="m0 0h65v66h-66v-24z" fill="#FEF9E9"/>
<path transform="translate(1008,65)" d="m0 0h66v65l-5 1h-61z" fill="#FEF9E9"/>
<path transform="translate(941,266)" d="m0 0h65v66h-66v-20z" fill="#FEF9E9"/>
<path transform="translate(68 1e3)" d="m0 0h66v65l-2 1h-64z" fill="#FEF9E9"/>
<path transform="translate(941,1406)" d="m0 0h66v66h-66l-1-2z" fill="#FEF9E9"/>
<path transform="translate(806,1139)" d="m0 0h66v79l-3 5-5 3h-10l-5-3-3-5v-47h-16v34h-24z" fill="#FDF8E8"/>
<path transform="translate(68,870)" d="m0 0h66v65l-66 1z" fill="#FEF9E9"/>
<path transform="translate(68,803)" d="m0 0h66v65l-66 1z" fill="#FEF9E9"/>
<path transform="translate(1881,735)" d="m0 0h65v67l-66-1v-65z" fill="#FEF9E9"/>
<path transform="translate(1008,132)" d="m0 0h66v65l-1 1-65-1z" fill="#FEF9E9"/>
<path transform="translate(1128,198)" d="m0 0h13v66h-66v-65z" fill="#FEF9E9"/>
<path transform="translate(1881,667)" d="m0 0 65 1v66h-65z" fill="#FEF9E9"/>
<path transform="translate(122,198)" d="m0 0h7l5 1v65h-66v-65z" fill="#FEF9E9"/>
<path transform="translate(1881,1472)" d="m0 0 65 1v66h-66z" fill="#FEF9E9"/>
<path transform="translate(941,1473)" d="m0 0h65v66h-66z" fill="#FEF9E9"/>
<path transform="translate(1008,199)" d="m0 0h66v65l-2 1-64-1z" fill="#FEF9E9"/>
<path transform="translate(1075,132)" d="m0 0h66v65h-66z" fill="#FEF9E9"/>
<path transform="translate(68,132)" d="m0 0h66v65h-66z" fill="#FEF9E9"/>
<path transform="translate(1075,65)" d="m0 0h66v65h-66z" fill="#FEF9E9"/>
<path transform="translate(68,65)" d="m0 0h66v65h-66z" fill="#FEF9E9"/>
<path transform="translate(1814 1e3)" d="m0 0 65 1v65h-66v-65z" fill="#FEF9E9"/>
<path transform="translate(1813,936)" d="m0 0 66 1v66l-66-1z" fill="#FEF9E9"/>
<path transform="translate(873,198)" d="m0 0 66 1v65h-66z" fill="#FEF9E9"/>
<path transform="translate(1881,265)" d="m0 0h58l7 1v65h-66z" fill="#FEF9E9"/>
<path transform="translate(874,64)" d="m0 0 65 1v65h-66v-65z" fill="#FEF9E9"/>
<path transform="translate(873,132)" d="m0 0h66v66l-66-1z" fill="#FEF9E9"/>
<path transform="translate(0)" d="m0 0h67v38l-1 26h-66z" fill="#FEF9E9"/>
<path transform="translate(471,937)" d="m0 0h33l32 1v65h-66z" fill="#FDF8E8"/>
<path transform="translate(1881,802)" d="m0 0 65 1v66l-66-1v-65z" fill="#FEF9E9"/>
<path transform="translate(1881 1e3)" d="m0 0h65v66h-17l-49-1z" fill="#FEF9E9"/>
<path transform="translate(1881,937)" d="m0 0h65v66l-66-1z" fill="#FEF9E9"/>
<path transform="translate(1881,870)" d="m0 0h65v66l-66-1z" fill="#FEF9E9"/>
<path transform="translate(941,65)" d="m0 0h65v66l-66-1z" fill="#FEF9E9"/>
<path transform="translate(680,936)" d="m0 0h11l13 3 34 3v61l-1 1h-24l-41-1v-66z" fill="#FDF8E8"/>
<path transform="translate(941,132)" d="m0 0h65v66l-66-1z" fill="#FEF9E9"/>
<path transform="translate(1881,1070)" d="m0 0 65 1v66l-66-1z" fill="#FEF9E9"/>
<path transform="translate(1881,198)" d="m0 0 65 1v65h-65z" fill="#FEF9E9"/>
<path transform="translate(941,199)" d="m0 0h65v66l-65-1z" fill="#FEF9E9"/>
<path transform="translate(1881,64)" d="m0 0 65 1v66l-66-1z" fill="#FEF9E9"/>
<path transform="translate(1881,132)" d="m0 0h65v66l-65-1z" fill="#FEF9E9"/>
<path transform="translate(1948)" d="m0 0h66v64h-66z" fill="#FEF9E9"/>
<path transform="translate(1008)" d="m0 0h66v63l-48 1h-18z" fill="#FEF9E9"/>
<path transform="translate(1075)" d="m0 0h66v63h-66z" fill="#FEF9E9"/>
<path transform="translate(806)" d="m0 0h66v63h-66z" fill="#FEF9E9"/>
<path transform="translate(68)" d="m0 0h66v63h-66z" fill="#FEF9E9"/>
<path transform="translate(941)" d="m0 0h66v31l-1 33h-23l-43-1z" fill="#FEF9E9"/>
<path transform="translate(1008,941)" d="m0 0h66v62l-1 1h-65z" fill="#FDF9E9"/>
<path transform="translate(1881)" d="m0 0h66v31l-1 32h-66z" fill="#FEF9E9"/>
<path transform="translate(1813)" d="m0 0h67l-1 63h-66z" fill="#FEF9E9"/>
<path transform="translate(740,941)" d="m0 0h65v62l-9 1h-56l-1-1v-61z" fill="#FDF9E9"/>
<path transform="translate(873)" d="m0 0h66v63h-66z" fill="#FEF9E9"/>
<path transform="translate(941,941)" d="m0 0h65l1 4-1 58-3 1h-62l-1-2z" fill="#FDF8E8"/>
<path transform="translate(874,941)" d="m0 0h65v62l-4 1-62-1v-61z" fill="#FEF9E9"/>
<path transform="translate(1075,941)" d="m0 0h60l6 1v61l-66 1z" fill="#FEF9E9"/>
<path transform="translate(806,941)" d="m0 0h66v62h-66z" fill="#FEF9E9"/>
<path transform="translate(1210,941)" d="m0 0h65v62h-66v-61z" fill="#FEF9E9"/>
<path transform="translate(1143,941)" d="m0 0h65v62h-66v-61z" fill="#FEF9E9"/>
<path transform="translate(1277,941)" d="m0 0h57l8 1v61h-66v-44z" fill="#FDF9E9"/>
<path transform="translate(1880)" d="m0 0h1v62l65 1v-32l1-31h1v64h65v1h-65v66h65v1h-65l1 65 64 1v1h-65v65l65 1v1h-65v65h18l46 1v1h-63l-1 65 3 1h-3v65h-2v-132l-65 1v36l-2 2v-39h-59v-1h59v-66h-66l1 67-2 1v-68h-66v38h-1v-172h-66v64h-1v-144h1l1 11 65 1v-52h1v52h66v-62h1l1 6v34l-1 22h66v-61zm-201 64v66h66v-66zm67 0v66h66v-66zm67 0v66h66v-66zm68 0-1 66 66 1v-66zm-135 67v66h66v-66zm67 0v66h66v-66zm68 1v65l65 1v-66zm-135 66v66h66v-66zm67 0v66h66v-66zm68 0v66h65v-65zm0 67-1 66h66v-65l-7-1z" fill="#E3E3E2"/>
<path transform="translate(1478,1139)" d="m0 0h65l1 1-1 31-12 6-5 5-5 8-3 15h-57v-21h21v-13h-5v-18z" fill="#FDF8E8"/>
<path transform="translate(1276 1e3)" d="m0 0h66v67h-66l-1-1v-23l4-1h23l1-17h-22l-5-1z" fill="#FDF8E8"/>
<path transform="translate(1075,333)" d="m0 0h66v67h-55l1-12 3-22-15-2z" fill="#FDF8E9"/>
<path transform="translate(889,1206)" d="m0 0h50v65h-66l1-34 7-5 4-6 2-8 1-11z" fill="#FDF8E9"/>
<path transform="translate(402,1029)" d="m0 0h52l1 1v17l-40 1-8 1-2 3v45l2 7 3 1h12l21-1h12v17l-25 2-16 1h-13l-11-4-6-5-3-7-1-38 1-25 4-8 9-6z" fill="#0C1935"/>
<path transform="translate(1476,1029)" d="m0 0h50l2 1v17l-39 1-10 2-1 2v49l4 4h15l31-1v17l-23 2-14 1h-17l-11-4-5-4-4-8-1-37 1-25 4-8 7-6z" fill="#0B1935"/>
<path transform="translate(941,1206)" d="m0 0h8v34l14-1 1-32 4-1h38l1 18v14l-1 34-66-1v-24z" fill="#FDF8E9"/>
<path transform="translate(1411,1206)" d="m0 0h35v34l14-1 1-32 4-1h11l1 1v63l-1 1h-65l-1-18v-17z" fill="#FDF8E8"/>
<path transform="translate(1085,593)" d="m0 0h6l-2 5-9 14-2 5 7-4 9-8 2-2 1 1v101l-19 7-11 7-4 4h-2l-2-81v-14l10-11 11-15z" fill="#FCF7E8"/>
<path transform="translate(873,1139)" d="m0 0h66v32h-11v13h11v21h-51l-1-33-14-1z" fill="#FDF8E8"/>
<path transform="translate(1075,1139)" d="m0 0h66v32h-21v34h-45z" fill="#FEF9E9"/>
<path transform="translate(1478,1206)" d="m0 0h39l2 6 4 13 8 9 8 4 5 2v31h-66z" fill="#FDF8E9"/>
<path transform="translate(939)" d="m0 0h2v62l-2 1zm-134 0h1v63h66v-63l2 2v41l-1 20h66l1 2h-66v45l-1 20h66l1 2h-67l1 19v181l-1 112h-1v-43l-28 1v-2h28l-1-67h-55l-10-1v67h24v1l-5 1h-19v20l-2-2 1-18h-66v58l19-14 4-2-2 5-13 21-9 15-5-5-6-7 1-4 8-6 2-61-57-1v-1h57l-1-135v-135l1-65h-66v66h64v1h-64v66h64v1h-64v39h-1l-1-40v-134l1-27h1v27l65-1 1-59h1v60h66zm-66 64v66h66v-66zm67 0v66h66v-66zm-67 67v66h66v-66zm67 0v66h66v-66zm-67 67v66h66v-66zm67 0v66h66v-66zm-67 67v66h66v-66zm67 0v66h66v-66zm-67 67v67l11 1h51l4-1v-67z" fill="#E2E1DF"/>
<path transform="translate(1120,1171)" d="m0 0h20l5 11 12 30v2h2l3-10 13-32 1-1h20v68l-1 1h-14v-42l-2 1-12 31-5 9-7 1-3-3-11-27-4-11-1 30-1 11h-15z" fill="#111B34"/>
<path transform="translate(337 1e3)" d="m0 0h50l15 1v25l-10 3-6 4-4 8-1 25-5 1-40-1z" fill="#FDF8E8"/>
<path transform="translate(975,592)" d="m0 0h74v8l-1 2h-40v66h13v1h-13v13h-2v-13l-44 1 1-11 11-66z" fill="#FDF8E8"/>
<path transform="translate(1344,1139)" d="m0 0h65l1 5-1 61h-24v-34h-16v40l-4-4-19-28-3-4v-35z" fill="#FDF8E9"/>
<path transform="translate(1446,669)" d="m0 0h30v66h-65v-38l9-3 29-8-3-12z" fill="#FDF8E9"/>
<path transform="translate(821,1072)" d="m0 0h51v66h-66v-15l12-4 5-5 3-8v-22l-5-10z" fill="#FDF8E8"/>
<path transform="translate(1478 1e3)" d="m0 0h66v17l-1 49h-66v-19l4-4 8-1h39v-17l-50-1-1-4z" fill="#FDF8E9"/>
<path transform="translate(1142 1e3)" d="m0 0h66v66h-24l-1-41-22-1v42h-19z" fill="#FDF8E8"/>
<path transform="translate(403 1e3)" d="m0 0h66v66h-65v-19l3-4 8-1h40l-1-17-51-1z" fill="#FDF8E9"/>
<path transform="translate(1075 1e3)" d="m0 0h66v66h-17l-1-41h-22l-1 41h-25z" fill="#FDF9E9"/>
<path transform="translate(471,1139)" d="m0 0h65v66h-34l1-7v-9l-3-8-7-6-5-2-18-2v-20z" fill="#FDF8E8"/>
<path transform="translate(1236,1029)" d="m0 0h62l5 1v17l-2 1h-25v24l-1 52h-24v-76l-28-1v-17z" fill="#0F1A34"/>
<path transform="translate(940,1139)" d="m0 0h66v66h-42v-21h19l1-1 1-12h-45z" fill="#FDF8E9"/>
<path transform="translate(605,1139)" d="m0 0h65l1 4-1 27-13 2-12 6-6 7-4 10-1 10h-29z" fill="#FDF8E8"/>
<path transform="translate(67)" d="m0 0h1v63h66v-63h1v63h66v-61h1v61h66v-35h1l1 34 64 1v1h-65l1 22v45h-2v-67h-66v66h65v1h-65v66h65v1h-65v66h45v1h-45v44h-1v-44h-66v66h44v1h-44v43h-1v-43l-34 1h-31l-1 64 4 1h21l-2 2h-21l-2-1v65h-2v-130l-66-1v-1l65-1 1-65h-66v-1h66v-66h-66v-1h66v-66h-66v-1h66v-66h-66v-1h66v-26zm68 64v66h66v-66zm-67 1v65h66v-65zm67 66v66h66v-66zm-67 1v65h66v-65zm67 66v66h66v-66zm-13 0-54 1v65h66v-65l-5-1zm-13 67-41 1v65h66v-66z" fill="#E2E2E1"/>
<path transform="translate(1545,1139)" d="m0 0h66v40l-1 26h-27l-4-16-5-8-7-6-8-3-14-2z" fill="#FDF8E8"/>
<path transform="translate(845,401)" d="m0 0h94v27l-33 9-23 8-15 6-3-1-18-41-2-5z" fill="#FDF8E8"/>
<path transform="translate(651,556)" d="m0 0 7 4 10 7-5 12-31 62-6 10-4 10-1 8 3 7-1 5-3 8-10-2-17-5 1-7 11-33 12-27 8-16 12-22 13-20z" fill="#B15822"/>
<path transform="translate(538,1139)" d="m0 0h66l-1 66h-13v-6h-29v-15h30l1-13h-47v12l-1 22h-7v-34z" fill="#FDF8E8"/>
<path transform="translate(857,1029)" d="m0 0h78v18l-2 1h-19l-7-1v77h-23l-1-53 1-23h-28l-1-2v-16z" fill="#0D1935"/>
<path transform="translate(1583,1206)" d="m0 0h28l-1 65h-65v-31l13-1 10-4 7-6 5-10z" fill="#FDF8E8"/>
<path transform="translate(538,1206)" d="m0 0h6l1 1v33l46-1 1-13h-31v-14h29v-6h13l1 46v19h-66l-1-30v-32z" fill="#FDF8E9"/>
<path transform="translate(1209,1139)" d="m0 0h66v32h-37v34h-29z" fill="#FEF9E9"/>
<path transform="translate(1209,1072)" d="m0 0h42v52h24v13l-15 1h-51z" fill="#FEF9E9"/>
<path transform="translate(874,1072)" d="m0 0h10v52h23v-52h32v66h-65l-1-2z" fill="#FDF8E8"/>
<path transform="translate(1461,871)" d="m0 0h16l-1 65h-8l-13-3-13-2-28-8-35-8-6-2-23-3-3-5-3-2v-3h-2v3l-9-3-5-5 9 1 10 3 9 1 10 3h7l2-2h10l8-2 21 6h21l5 2h8l7 3 1-11z" fill="#FCF8E8"/>
<path transform="translate(1210,1206)" d="m0 0h28v34h38v17l-1 14h-66v-64z" fill="#FEF9E9"/>
<path transform="translate(813,1206)" d="m0 0h17l2 18 3 6 7 6 8 3h17l5-1v33l-7 1h-58l-1-1v-64z" fill="#FDF8E9"/>
<path transform="translate(1411,1139)" d="m0 0h65v32h-51v13h20l1 1v20h-35z" fill="#FDF8E8"/>
<path transform="translate(451,1171)" d="m0 0h31l9 2 6 4 5 6 2 6v9l-2 7-4 5-4 3h-2l11 20 3 6-1 1h-16l-8-14-5-9-9-1v24h-15l-1-1z" fill="#131C34"/>
<path transform="translate(941 1e3)" d="m0 0h65v24l-31 1-1 41h-33z" fill="#FDF8E9"/>
<path transform="translate(809,415)" d="m0 0 3 1 4 11 3 17 39 10 30 10 9 5 3 3v2l18 4 5-2h7l7 2 8 7 6 11v2l22-4 18-2h15v25l-15 2-23 3-8 1 1 10h-7l-5-21-6-16-4-6-6-4h-8l-3 2-25-5-3-6v-2l-39-13-42-10-2-4-2-17-2-6v-7z" fill="#FCF8E8"/>
<path transform="translate(737,1171)" d="m0 0h30l9 2 7 4 5 8 1 3v12l-4 8-6 5 1 5 9 16 2 3v3h-17l-13-23h-8l-1 23h-15l-1-35z" fill="#0E1A34"/>
<path transform="translate(1418,602)" d="m0 0h59l-1 66h-31l-5-12-8-21-11-24-3-6z" fill="#FDF8E8"/>
<path transform="translate(941,1072)" d="m0 0h33v52l23-1 1-29h8v44h-65l-1-1v-22z" fill="#FDF8E9"/>
<path transform="translate(1209 1e3)" d="m0 0h66v24l-39 1-12 1v9l-1 7h20l8 1v23h-42z" fill="#FDF8E9"/>
<path transform="translate(911,866)" d="m0 0 4 1-12 13-2 3 5-1-5 5-8 7-3 9 24-8 13-5 15-4h5l-4 4-16 10-10 8-6-1-11 6h-5l-3-2-12 1-16 6-2-2-2-7-7 1-9 4h-2v-3l-20 7-5 1 2-10 6-5 10-6 12-5 17-12 4-4-12-1 1-3 8-1 4-3h26z" fill="#FBF6E8"/>
<path transform="translate(1328,1171)" d="m0 0h13l11 15 16 24 1-39h16v68l-1 1h-11l-5-5-14-20-9-13v-2h-2v40h-15l-1-1v-59z" fill="#131C34"/>
<path transform="translate(750,797)" d="m0 0 9 1 11 7 8 8 5 10v8l-6 10-8 7-5 1 6 9 1 4v12l-1-3-7 1-1-11-1-4h-8l-4 4-1 10h-27l2-6 20-30-5-5h-5l1-3-7-10-7-13v-2h10l7 13 8 7 2 1-2-6-4-8 1-6 5-5z" fill="#FAF6E8"/>
<path transform="translate(538 1e3)" d="m0 0h65l1 1-1 65h-23l-1-22-3-9-4-5-10-4-25-2v-17z" fill="#FDF8E8"/>
<path transform="translate(566,803)" d="m0 0 4 2 7 3 5 2 8 11-2 3 2 8-2 5h-2l-2 10-2-3v-11l1-10-7-8v15l3 39h-42l1-65z" fill="#FDF8E9"/>
<path transform="translate(1075,782)" d="m0 0h66v20h-50l-2-4-4-2-3-1h-10l-3 2 10 1 7 7 3 9v10l-5 10-6 5-8 1h-3l-3 6-5-5-4-9-1-5v-19l5-13 8-9z" fill="#FCF7E8"/>
<path transform="translate(1036,1171)" d="m0 0h21l4 9 15 45 4 10v5l-6 1-10-1-6-14h-23l-5 13-1 1h-15l-1-2 19-57z" fill="#101A34"/>
<path transform="translate(471 1e3)" d="m0 0h65v24l-25 2-10 4-5 6-2 8-1 22h-22l-1-22v-30z" fill="#FDF8E9"/>
<path transform="translate(1057,1072)" d="m0 0h16l1 1v65h-66v-44h9l12 22 4 7 25 1-10-18-6-11 1-3 7-4 5-8z" fill="#FDF8E9"/>
<path transform="translate(1006,1205)" d="m0 0 2 1v66h65v-32l2 1v31h66v-53h1l1 52h65v-65l1-1h29v1l-28 1-1 64 2 1-1 1-1 59h-1v-59h-66v64l2 1h-2v41h-1v-41l-36 1h-27v-1l13-1h50v-64h-66v130h-1l-1-79v-51h-65v132l66-1h120v1l-53 1h-66v66l67-1 1 2-1 66h-1v-66h-66v64h-1l-1-65 1-66h-66v16h-1v-16h-66v65l64 1v1h-64v65h-2v-65h-66l1 17v31l-1 18h14v1l-13 1-1 15h-1v-16l-2-1h2v-124h1l1 8v48l65 1v-66h-65l-2 2v-4l68-1 3 1h63v-131l-2-1h2zm0 217m68 117h67v1l-35 1h-31z" fill="#E3E3E2"/>
<path transform="translate(739,1072)" d="m0 0h9l4 7 8 4 4 1 33 1 7 1-1 17-2 2-9 1h-22l-23-1 1 16 25 2 32 1v14h-66z" fill="#FDF8E8"/>
<path transform="translate(1678 1e3)" d="m0 0h1v66l42-1h24l-2 2h-64v65h54v1l-14 1h-40v45h-1v-45l-49 1h-84v31l-2 1v-31l-65-1v14l-1 18h-1v-32h-67l-65 1v30l-2 4-1-3 1-32h-65v32h-2v-32h-66v-1l66-1v-65h1l1 65h27l38 1v-14l45-1h23l1 1v14h65v-12h1l1 11 65 1v-65l-65-1v-1h65v-48l2-1v49l24-1v2h-24v66l48-1h18v-49h1v49l65-1 1-64h-28l4-2h24z" fill="#E2E2E0"/>
<path transform="translate(1278,866)" d="m0 0 5 1 8 6 3 7 6 2 2-11 1-2h25l-5 23 5 2 5 5 9 4v-3h2l1 3 4 3v3l-12-1-25-6-9-9-11-3-1 1 12 13 8 7-1 2h-7l-6-3-15-3-4-2h-8l-20-4-6-5-1-5 1-1 9 1-7-4-8-4v-2l10-2 10 4 7 1-4-4-9-6 4-2h9l10 2 7 3-1-1-10-4-5-4 4-1h8z" fill="#F8F3E6"/>
<path transform="translate(873 1e3)" d="m0 0h66v66h-32v-24h27v-17h-26l-35-1z" fill="#FDF8E9"/>
<path transform="translate(1008 1e3)" d="m0 0h65l1 1v65h-17l-1-22-4-11-6-5-7-2-26-1-6-1z" fill="#FDF8E8"/>
<path transform="translate(941,333)" d="m0 0h65v28l-31 2-17 2h-5l4 28v6l-16 1-1-66z" fill="#FDF8E8"/>
<path transform="translate(830,1171)" d="m0 0h16l1 47 3 5 4 2h10l5-3 2-4 1-47h15l1 1v46l-3 10-4 5-9 6-5 1h-17l-10-4-7-7-3-10z" fill="#131C34"/>
<path transform="translate(1075,1072)" d="m0 0h25l1 31 2 8 4 6 10 5 4 1 20 1v14h-66z" fill="#FDF8E8"/>
<path transform="translate(1238,1171)" d="m0 0h47v13l-10 1-21-1v15h28v13h-28v14h31v13l-2 1h-45z" fill="#181D33"/>
<path transform="translate(545,1171)" d="m0 0h47v13l-2 1-29-1v15h28v13h-28v14h31v13l-1 1h-46z" fill="#121B34"/>
<path transform="translate(1184,1072)" d="m0 0h24v66h-66v-14l21-1 10-3 6-5 4-9z" fill="#FDF8E8"/>
<path transform="translate(647,753)" d="m0 0 1 3-3 9v3l9-2 4-4 2 1-2 4 2 5-4 4-7 1h7l12-3h10l6 4 3 3 7 3 7 9v1l-17 1-5-2h-5l-6-3-1 4-1 2 10 1 4 2 2 3 3 1 4 6 2 6v4l-4-1-6-3 4 9v3l-2 5-4-1-22-11-14-8v-3l10-4 9 2 4 2-3-5v-2l-11-1-14 1 1-5 7-9h-3l-9 3-4-1 7-7-10 4 8-14z" fill="#FBF6E8"/>
<path transform="translate(661,1170)" d="m0 0h10l11 4 7 5 5 8 2 9h-17l-3-7-5-3h-10l-6 4-4 8v15l4 8 6 4h9l6-3 4-7h13l3 1-3 9-4 6-8 6-8 3h-15l-12-5-7-8-4-8-2-14 2-13 5-10 8-7 9-4z" fill="#101A34"/>
<path transform="translate(520,1048)" d="m0 0h32l4 3v51l-3 3-4 1h-26l-5-3-1-1v-51z" fill="#FDF8E8"/>
<path transform="translate(1045,657)" d="m0 0h2v11l-9 11-13 18-3 7 9-7 13-14 3-3v48l-2 2h-40l2-4 6-9 2-5-5 2-9 8-7 8h-12l6-8 14-17 11-14 9-11 5-6 1-5-3-1h10v-3l9-6z" fill="#FBF6E8"/>
<path transform="translate(979,870)" d="m0 0 2 1-2 5-4 14v2l9-2 10-8 8-6h6l7-2h8l-4 4-9 4-9 7-7 6-5 10 1 2 9-1-1 4 18-7h8l-2 3-6 1-14 8-5 3-4 1-5 4-13-1-10 1-3-3v-3l-8 1-1-4-18 9h-3l1-4 7-9-4-1 2-4 10-10 14-11 9-6 6-7z" fill="#FBF7E8"/>
<path transform="translate(780,602)" d="m0 0h25v12l-11 13-9 12-10 15-8 13-1 1h-28l1-5 10-18 12-18 10-14z" fill="#FDF8E8"/>
<path transform="translate(811,535)" d="m0 0h7l13 5 4 4 1 3-6-1-13-7h-2l-8 13-11 14-11 13-11 14-13 16-11 14-14 17-12 16-13 18-13 17-12 17-13 19-9 14-11 18-5 9 4 1h-7l-1-4 4-14 11-17 8-12 16-23 10-14 14-19 15-20 11-14 13-16 11-14 14-17 9-11 12-15 7-9h3l1 2 4-13z" fill="#FBFBF5"/>
<path transform="translate(1477,543)" d="m0 0h1v57l32-1h30v1l-24 1h-38v65h126v1l-111 2h-14l-1 65 58-1h207v1l-12 1h-132l-96 1h-25v64l-2 1v-65h-65v54h-1l-1-53-7-1-1 3-7-33-1-4 17-5h1v38h65v-66l-31 1v-2h31v-59l1-7-60 1v-2l38-1h22z" fill="#E2E2E1"/>
<path transform="translate(737,667)" d="m0 0 29 1-9 19-11 28-6 20h-27l4-17 8-24 11-25z" fill="#FAF5E7"/>
<path transform="translate(939,130)" d="m0 0h51l14 1v1h-63v64l50 1 13 1v1h-63v65h55l9 1v1h-64v46l-1 20h65v1l-64 1v66l6-1h10l2 7 2 13v5l-15 3h-7v-26h-66v-1h66v-67h-66l1-2h33l32 1-1-66h-45l-20-1v-1h66v-65h-55l-11-1v-1h65z" fill="#E3E2E1"/>
<path transform="translate(1008,333)" d="m0 0h65l1 27-1 3-19-1-28-1h-18z" fill="#FDF8E9"/>
<path transform="translate(1249,695)" d="m0 0h1v40h5v19l-4 9-4 6 12 6 10 11 5 11 2 8v24l-5 16-6 9-3 1v2l5 2 11 6 1 3h-14l-10-5-9-2-4-3 3-1 5-1 5-6 4-2 3-8 4-6v-7l1-4 3-1 1-7-3-1v-10l-5-8-2-7-6-4-4-5-8-2-7-1-1 1h-5l-3-2-9 2-5-2-4 2-4-1-3-1-5 2-9-2-1-1v-7l47-1 8-4 5-8 1-4z" fill="#F8F4E7"/>
<path transform="translate(1008,491)" d="m0 0h16l33 2 16 2 2 2v13l-1 11-16-1-23-2-29-1v-25z" fill="#FCF7E8"/>
<path transform="translate(1141,517)" d="m0 0h1v16h31l2-1 18 11 17 12v31l-5-2-18-14-15-10-18-10-14-7 1-8h-13l-4-2h17z" fill="#FCF7E8"/>
<path transform="translate(1085,401)" d="m0 0h56v37l-9-2-30-8-20-4 2-17z" fill="#FDF8E8"/>
<path transform="translate(1745,11)" d="m0 0h1v52h64v1h-64v66h66v-41h2v91l-1 17h66v-67h62l3 2h-63l1 66v67l-3 1-66-1 1 67-2 1v-68h-66v38h-1v-172h-66v64h-1v-144h1l1 11 65 1zm-66 53v66h66v-66zm67 67v66h66v-66zm0 67v66h66v-66zm67 0v66h66v-66z" fill="#E2E2E1"/>
<path transform="translate(1343 1e3)" d="m0 0h66v25h-60l-6-1z" fill="#FDF8E9"/>
<path transform="translate(268,884)" d="m0 0h1v51h65v1h-65v66h64l2 1v-68h66v1h-64v65l2 1 48 1v1h-50v59l-1 7h40l4 2h-39l-4-1v65l65 1v-10l2 2v8l63 1v1h-63v65h26l18 1v1h-40l-4-1v52l-2 1v-53h-42v-1h42v-65h-25l-41-1v6h-1v-73h-67l-66-1v-1h113l20 1v-66h-21l-45-1v64h-1v-131h-66v-1h66z" fill="#E3E3E2"/>
<path transform="translate(1310,804)" d="m0 0h24v23l-3 27-3 15h-25l2-14 3-22z" fill="#FDF8E8"/>
<path transform="translate(575,814)" d="m0 0 6 5 3 4-1 10v11l7 19 9 19 9 12 7 8 14 10 8 4-4 1-23-2h-5l-8 3-8-1-4-14-6-32-3-25-1-16z" fill="#B35922"/>
<path transform="translate(1149,876)" d="m0 0 7 1 6 3 5 1 1-3 3-1 16 5 7 4 13 4 14-1 1 3h5l10 8 7 7 16 10 10 4 1 2-9-1-9-4-14-1-8-3-6-4-4-1-7-1-23-11-10-4 2 5-9-2-13-5 1 4-4-2-13-8-8-4-1-3h13z" fill="#FBF6E8"/>
<path transform="translate(928,1171)" d="m0 0h57v12l-2 2-19-1v55l-1 1h-14l-1-36v-19h-9l-11-1z" fill="#141C34"/>
<path transform="translate(1425,1171)" d="m0 0h57v13l-5 1-16-1v55l-1 1h-14l-1-35v-20l-20-1z" fill="#0D1935"/>
<path transform="translate(1076,781)" d="m0 0h135l-2 1v20h26l2 2h-28v48h-1v-48h-35l3 11v8l-3 9-5 7-7 4h-9l-6-3 4-1 6-1 6-4 4-7 1-4v-9l-3-9-5-5-5-2-6-1 3-3h10l6 4 3 3 38 1v-20h-66v20h16l3 2h-19v50h66v1h-130v-1h63v-50h-47l3 11v9l-4 10-4 5-7 4h-9l-6-3 3-1 8-1 6-5 4-9v-10l-3-9-6-6-10-1-2-1 5-3h10l7 4 2 3 50 1v-20h-65z" fill="#E3E3E2"/>
<path transform="translate(66,869)" d="m0 0 2 1v66h15v1h-15v66l27-1h36l1 2h-64v66l18-1h46v2h-64v65h96v1h-29v42h-1v-42l-24 1h-42v131h-2v-39l1-25h-67v-1h66v-65l-66-1v-1h66v-66l-41 1h-25v-2h66v-66l-61 1h-5v-2h66v-66h-66v-1h66z" fill="#E3E3E2"/>
<path transform="translate(2015,1474)" d="m0 0h20v66h-20z" fill="#FEF9E9"/>
<path transform="translate(2015,1406)" d="m0 0 20 1v65l-1 1h-19z" fill="#FEF9E9"/>
<path transform="translate(2015,1541)" d="m0 0h19l1 1v65h-20z" fill="#FEF9E9"/>
<path transform="translate(2015,870)" d="m0 0h19l1 1v65h-20z" fill="#FEF9E9"/>
<path transform="translate(2015,803)" d="m0 0h19l1 1v65h-20z" fill="#FEF9E9"/>
<path transform="translate(2015,669)" d="m0 0h20v65l-1 1h-19z" fill="#FEF9E9"/>
<path transform="translate(2015,266)" d="m0 0h19l1 1v65h-20z" fill="#FEF9E9"/>
<path transform="translate(2015,199)" d="m0 0h19l1 1v65h-20z" fill="#FEF9E9"/>
<path transform="translate(2015,132)" d="m0 0h19l1 1v65h-20z" fill="#FEF9E9"/>
<path transform="translate(2015,65)" d="m0 0h19l1 1v65h-20z" fill="#FEF9E9"/>
<path transform="translate(2015,736)" d="m0 0h19l1 1v64l-1 1h-19z" fill="#FEF9E9"/>
<path transform="translate(2015 1e3)" d="m0 0h20v65l-10 1h-10z" fill="#FEF9E9"/>
<path transform="translate(2033,937)" d="m0 0 2 1v65l-20 1v-66z" fill="#FEF9E9"/>
<path transform="translate(738,198)" d="m0 0h1v66h66l1 1v66h66l-1 2h-55l-10-1v67h24v1l-5 1h-19v20l-2-2 1-18h-66v58l19-14 4-2-2 5-13 21-9 15-5-5-6-7 1-4 8-6 2-61-57-1v-1h57l-1-135zm1 67v66h66v-66zm0 67v67l11 1h51l4-1v-67z" fill="#E3E3E2"/>
<path transform="translate(785,436)" d="m0 0h2l-1 5-12 22-13 23-13 22-12 21-13 24-12 23-21 42-11 23-15 32-15 33-9 20-3 3 2-9 14-34 13-29 17-36 30-60 12-22 14-26 13-23 15-26 14-23z" fill="#F8F7F2"/>
<path transform="translate(2015)" d="m0 0h20v63l-1 1h-19z" fill="#FEF9E9"/>
<path transform="translate(951,755)" d="m0 0h272l1 4-2 1h-177l-92-1-3-1z" fill="#F5F2E6"/>
<path transform="translate(1209,400)" d="m0 0 66 1v39l-7-4-19-12-19-11-16-8-5-3z" fill="#FDF8E8"/>
<path transform="translate(975,592)" d="m0 0h74v8l-1 2h-40v66h13v1h-13v13h-2v-13l-44 1v-5l1 3h43v-16l1-36-22 22-6 1 1-6 8-12 10-11 6-2 3 1-1-6h-33l1-10z" fill="#E3E3E2"/>
<path transform="translate(671,417)" d="m0 0h1v49h18l38 1v1h-51l-5-1v67h15v1h-15v18l-1 19h-1v-25l1-12h-56l-10-1v67l19-1-1 5-8 16-10 23-2-1v-40l-82-2-26-1v-1h29l58 1 21 1v-44l1-23h-29l-1-2 30 1v-36h1v36h25l40 1v-66l-37-1v-1h38z" fill="#E3E3E2"/>
<path transform="translate(1880,1608)" d="m0 0h66v18h-66z" fill="#FEF9E9"/>
<path transform="translate(1813,1608)" d="m0 0h66v18h-66z" fill="#FEF9E9"/>
<path transform="translate(1746,1608)" d="m0 0h66v18h-66z" fill="#FEF9E9"/>
<path transform="translate(1679,1608)" d="m0 0h66v18h-66z" fill="#FEF9E9"/>
<path transform="translate(1612,1608)" d="m0 0h66v18h-66z" fill="#FEF9E9"/>
<path transform="translate(1545,1608)" d="m0 0h66v18h-66z" fill="#FEF9E9"/>
<path transform="translate(1276,1608)" d="m0 0h66v18h-66z" fill="#FEF9E9"/>
<path transform="translate(1209,1608)" d="m0 0h66v18h-66z" fill="#FEF9E9"/>
<path transform="translate(940,1608)" d="m0 0h66v18h-66z" fill="#FEF9E9"/>
<path transform="translate(873,1608)" d="m0 0h66v18h-66z" fill="#FEF9E9"/>
<path transform="translate(806,1608)" d="m0 0h66v18h-66z" fill="#FEF9E9"/>
<path transform="translate(403,1608)" d="m0 0h66v18h-66z" fill="#FEF9E9"/>
<path transform="translate(336,1608)" d="m0 0h66v18h-66z" fill="#FEF9E9"/>
<path transform="translate(269,1608)" d="m0 0h66v18h-66z" fill="#FEF9E9"/>
<path transform="translate(0,1608)" d="m0 0h66v18h-66z" fill="#FDF8E8"/>
<path transform="translate(1478,1608)" d="m0 0h66v17l-1 1h-65z" fill="#FEF9E9"/>
<path transform="translate(1142,1608)" d="m0 0h66v17l-1 1h-65z" fill="#FEF9E9"/>
<path transform="translate(1008,1608)" d="m0 0h65v18h-66v-17z" fill="#FEF9E9"/>
<path transform="translate(739,1608)" d="m0 0h66v17l-1 1h-65z" fill="#FEF9E9"/>
<path transform="translate(672,1608)" d="m0 0h66v17l-1 1h-65z" fill="#FEF9E9"/>
<path transform="translate(202,1608)" d="m0 0h66v17l-1 1h-65z" fill="#FEF9E9"/>
<path transform="translate(605,1608)" d="m0 0h66v17l-1 1h-65z" fill="#FEF9E9"/>
<path transform="translate(1344,1608)" d="m0 0h65v18h-66v-13z" fill="#FEF9E9"/>
<path transform="translate(1075,1608)" d="m0 0h65l1 1v11l-1 6h-65l-1-2z" fill="#FEF9E9"/>
<path transform="translate(135,1608)" d="m0 0h65l1 1v10l-1 7h-65l-1-2z" fill="#FEF9E9"/>
<path transform="translate(1880,1418)" d="m0 0h1v52l1 1 78 1v1h-12v67h64v1h-64l1 67-1 1v13l-2 4v-18h-66v18h-1v-18h-66v18h-1v-87h67v-95zm1 54-1 67h66v-66zm-68 68v67h66v-67zm68 0-1 48v19h66v-66l-41-1z" fill="#E2E2E1"/>
<path transform="translate(538,1608)" d="m0 0h66v9l-1 9h-65z" fill="#FEF9E9"/>
<path transform="translate(68,1608)" d="m0 0h65v18h-66z" fill="#FEF9E9"/>
<path transform="translate(961,531)" d="m0 0 2 3 10 13 13 16 5 7 17 1h44l23 1v8h12v1h-97l-8-9-11-14-11-13-5-9 1-4 5 1z" fill="#FAF6E8"/>
<path transform="translate(1411,1608)" d="m0 0h65v18h-65l-1-2z" fill="#FEF9E9"/>
<path transform="translate(471,1608)" d="m0 0h65v18h-65l-1-2z" fill="#FEF9E9"/>
<path transform="translate(1948,1608)" d="m0 0h45l20 1v17h-66v-17z" fill="#FDF8E8"/>
<path transform="translate(706,551)" d="m0 0 1 3-23 45-14 30-15 35-24 60-8 21-1 2-5-2-4-5 1-5 18-41 9-19 5-5 4-10 15-29 16-32 8-17 10-19 6-11z" fill="#F9F5E7"/>
<path transform="translate(940,1184)" d="m0 0h8l1 1v19l-1 2h-7v41l-1 24h53l11 1v1h-63v130h-2v-130h-65l-1 64h65v1l-64 1-1 36h-1v-102h-7l1-2h6v-32l2-1v32l65 1v-65l-32 1h-19v-2h51v-20z" fill="#E3E3E2"/>
<path transform="translate(819,517)" d="m0 0 9 2 26 11 23 11 10 9 7 11 8 17 12 29 18 42 6 15 6 18v5l-4-5-10-19-23-54-12-30-8-18-7-11-11-7-29-14-19-9z" fill="#F9F5E8"/>
<path transform="translate(688,534)" d="m0 0 1 2-1 4 2 3-11 23-12 23-33 66h-2v-7l4-11 2-6 1-6 26-52 2-7h2l1 2 2-33z" fill="#FCF7E9"/>
<path transform="translate(1545,1185)" d="m0 0h11l6 4 4 8v17l-3 6-6 5-2 1h-9l-6-3-4-6-2-6v-11l3-8 4-5z" fill="#FDF8E8"/>
<path transform="translate(874,616)" d="m0 0h3l5 13 9 19 12 28 13 28 16 34 6 13v11l-6-1-2-13-3-4-3-3-15-32-15-33-15-34-3-7z" fill="#FCFBF5"/>
<path transform="translate(1075,572)" d="m0 0h14l20 1 3 8 15 49 7 23v2l7-2v2l2 1 1 4 7 1v1l-10 1-3 4v10l-4 1-3-7-17-56-10-33-29-2z" fill="#FAF6E8"/>
<path transform="translate(1210,556)" d="m0 0 8 6 10 8 15 14 13 14v2l-32 1-8-8-7-6v-24z" fill="#FDF8E9"/>
<path transform="translate(872)" d="m0 0 2 2v41l-1 20h-1zm-67 0h1v63h66v1h-66v66h66l-2 2-133-1 1-67h-66v66h64v1h-64v66h64v1h-64v39h-1l-1-40v-134l1-27h1v27l65-1 1-59h1v60h66zm-66 64v66h66v-66z" fill="#E2E2E1"/>
<path transform="translate(805,1453)" d="m0 0h1v18h59v1l-5 1h-38l-16-1v67h-1zm-67 35h1v51h66v1h-66v67h63v1h-63v18l-2-1 1-17h-66v18l-2-1 1-17h-66v18h-2v-9l1-9h-66v-1h65v-25l1-44 64 1v1h-63v67h65l1-69h66zm-66 52v67h65l1-1v-66z" fill="#E3E3E2"/>
<path transform="translate(998,1047)" d="m0 0h18l14 1 3 4v20l-3 4-8 1h-23l-1-1z" fill="#FAF5E8"/>
<path transform="translate(602,838)" d="m0 0h2l8 23 7 13 8 10 10 6 6 2h15l13-4 16-9 16-11 8-6h3l-2 4-10 10-16 12-16 9-15 4h-10l-13-4-11-8-9-11-5-10-4-12-1-5z" fill="#FAF6E8"/>
<path transform="translate(860,552)" d="m0 0 7 4 6 8 8 15 13 28 29 58 6 11 11 21 4 9v9l-2 3-8-16-15-31-13-28-10-24-7-13-6-4-17-35-6-13z" fill="#F9F5E8"/>
<path transform="translate(1387,1123)" d="m0 0h23v14l-1 1h-65l-1-1v-13z" fill="#FDF8E8"/>
<path transform="translate(845,401)" d="m0 0h27l1 41 5 2v3l-10 4-3-1-18-41-2-5z" fill="#FDF8E9"/>
<path transform="translate(201,801)" d="m0 0h65v1h-64v200h65v1h-65v111h-1v-44l-28 1h-37l-1 64h-1l-1-66v-66l1-1h67zm-66 202v66h66v-66z" fill="#E2E2E0"/>
<path transform="translate(1544,812)" d="m0 0h1v56h131v1l-131 1v66l2-1h64v-43h1v43h65v1l-101 1-32 1h-46v-1l16-1h30v-66l-65 1-1 66h-5l3-1v-56l1-9h-15v-2l81-1z" fill="#E2E2E1"/>
<path transform="translate(739,669)" d="m0 0h26l-2 6-9 19-11 29-3 2-1-2z" fill="#FDF8E9"/>
<path transform="translate(713,884)" d="m0 0h3l5 19 1 7-24 1-14 5-10-1-12 2h-6l2-2 16-6 17-9 14-10z" fill="#B55C23"/>
<path transform="translate(775,1047)" d="m0 0h30l1 1v19l-17 1h-13l-5-3-2-3v-8l3-5z" fill="#FBF6E8"/>
<path transform="translate(809,415)" d="m0 0 3 1 4 11 3 17 39 10 13 4 1 1v7l-8-1-24-7-24-5-4-2-1-3-2-17-2-6v-7z" fill="#FBFBF5"/>
<path transform="translate(750,805)" d="m0 0 6 1 12 7 7 7 4 3-2 4-8 11-9 5-4 1h-8l5-14 1-15-4-5-1-4z" fill="#141C34"/>
<path transform="translate(872,459)" d="m0 0 11 3 14 7 3 3v2l18 4 5-2h7l7 2 8 7 6 11-1 3-1-3-4-2-5-9-1 3-6-2h-8l-3 2-25-5-3-6v-2l-9-3-14-5z" fill="#FBF6E8"/>
<path transform="translate(1061,669)" d="m0 0h12l1 1v44l-10 8-3 1z" fill="#FEF9E9"/>
<path transform="translate(1142,1072)" d="m0 0h19v29l-4 4-7 1h-8z" fill="#FCF8E9"/>
<path transform="translate(697,808)" d="m0 0 3 1 5 6 7 8v5h2l2-4 2 2 1 10-4 7-4 3-5-1-21-11 1-2 7-3 3-5 1-4v-7l-2-1v-3z" fill="#FAF5E7"/>
<path transform="translate(538,1072)" d="m0 0h18v30l-3 3-4 1h-11z" fill="#FDF8E9"/>
<path transform="translate(1073,621)" d="m0 0h1v46l-1 1h-12l-2-26v-14l2 2 6-6 6-1z" fill="#FDF8E8"/>
<path transform="translate(811,535)" d="m0 0h7l13 5 4 4 1 3-6-1-13-7h-2l-8 13-11 14-11 13-11 14-6 8-6-3 2-5 12-14 22-28 4-1 1 2 4-13z" fill="#FBFBF6"/>
<path transform="translate(1275,331)" d="m0 0h2v36l-1 32 68-1v48l-1 20h43v1l-42 1-1 59h-1v-60l-24 1-3-2h27v-49l1-17-66 1v37l-2 2v-39h-60l-5-1v-1h65z" fill="#E3E3E2"/>
<path transform="translate(1277,626)" d="m0 0 4 4 11 18 9 16v4h-24z" fill="#FDF8E9"/>
<path transform="translate(1124,1072)" d="m0 0h16l1 1v33h-10l-5-2-2-2z" fill="#FDF9E9"/>
<path transform="translate(785,436)" d="m0 0h2l-1 5-12 22-13 23-13 22-12 21-9 16-3-2 2-6 13-24 13-23 15-26 14-23z" fill="#F7F3E7"/>
<path transform="translate(1342,1538)" d="m0 0h2v68h65v-67h66v1h-64v67h63v1h-63v18h-2v-18h-65l-1 18h-1v-18h-66v-1h66z" fill="#E3E3E2"/>
<path transform="translate(1108,891)" d="m0 0 6 2 9 2 6 6 7 2v4l4 1 8 6v4l-7-1v5l-8-1-6-3h-3l-5-10-5-5-6-10z" fill="#FBF6E8"/>
<path transform="translate(1678 1e3)" d="m0 0h1v66l42-1h24l-2 2h-64v65h54v1l-14 1h-40v45h-1v-45l-49 1h-17l-1-2 66-1 1-64h-28l4-2h24z" fill="#E3E3E2"/>
<path transform="translate(613,754)" d="m0 0h5l1 3-8 26-5 4-4 7-10-2 1-5 8-18 6-11z" fill="#FBF6E8"/>
<path transform="translate(1274,827)" d="m0 0h1l-1 10-5 12-5 6h-2v2l5 2 11 6 1 3h-14l-10-5-9-2-4-3 3-1 5-1 5-6 4-2 3-8 5-7 2-4 4-1z" fill="#FBF6E8"/>
<path transform="translate(940,401)" d="m0 0h18l3 18v5l-9 2h-11l-1-7z" fill="#FDF8E9"/>
<path transform="translate(1406,698)" d="m0 0h4v37h-9l-2-6-6-27z" fill="#FDF8E8"/>
<path transform="translate(1072,794)" d="m0 0h10l7 4 6 9 2 8v9l-4 10-4 5-7 4h-9l-6-3 3-1 8-1 6-5 4-9v-10l-3-9-6-6-10-1-2-1z" fill="#222132"/>
<path transform="translate(1226,794)" d="m0 0h10l8 5 5 8 2 8v8l-3 9-6 8-6 3h-9l-6-3 4-1 7-1 6-5 4-9v-11l-3-8-5-5-5-2h-8l3-3z" fill="#202032"/>
<path transform="translate(738,3)" d="m0 0h1v59h-1zm-67 33h1v27h65v1h-65v66h64v1h-64v66h64v1h-64v39h-1l-1-40v-134z" fill="#E3E3E2"/>
<path transform="translate(1151,794)" d="m0 0h10l6 4 5 5 4 12v8l-3 9-5 7-7 4h-9l-6-3 4-1 6-1 6-4 4-7 1-4v-9l-3-9-5-5-5-2-6-1z" fill="#1E2033"/>
<path transform="translate(847,1206)" d="m0 0h24v14l-5 5-2 1h-10l-5-3-2-2z" fill="#FEF9E9"/>
<path transform="translate(931,794)" d="m0 0h11l6 4 6 10 2 12-2 9-6 9-6 4-7 1-7-2v-1l8-2 6-4 4-8 1-10-2-8-4-6-3-3-3-1h-10l4-3z" fill="#222132"/>
<path transform="translate(520,1048)" d="m0 0h17l-1 23h-19v-20z" fill="#FDF9E9"/>
<path transform="translate(1006,941)" d="m0 0h2v63l24-1h41l1-61h1v62h11v1h-11v66l-2-2v-63l-65-1v21l-2 3v-24h-44l1-2h43z" fill="#E3E3E2"/>
<path transform="translate(761,443)" d="m0 0v3l-9 15-13 21-2 2-10-12 1-4 14-11z" fill="#B55C23"/>
<path transform="translate(1075,572)" d="m0 0h14l20 1 3 8 4 13v6l-4 1-3-2-5-17-29-2z" fill="#FCF7E9"/>
<path transform="translate(1240,672)" d="m0 0 5 2 7 8 3 8v45h-5l-1-40-5-10-8-6-4-2 1-4z" fill="#FBF9F2"/>
<path transform="translate(538,1048)" d="m0 0h14l4 3v20h-18z" fill="#FDF9E9"/>
<path transform="translate(819,517)" d="m0 0 9 2 26 11 23 11 10 9 7 11 5 10-1 4-2-4-3-2v-2h-3l-7-13-4-5-14-8-25-12-19-9z" fill="#F8F7F2"/>
<path transform="translate(1545,1185)" d="m0 0h11l6 4 4 8v8h-21l-1-15-2 2h-4l2-4z" fill="#FDF8E9"/>
<path transform="translate(1075,264)" d="m0 0h66v1l-23 1h-43v66h65v1h-65v31l-2-1v-30h-64v-1h64v-67z" fill="#E3E3E2"/>
<path transform="translate(874,616)" d="m0 0h3l5 13 9 19 7 17-2 7 2 4-1 4-3-4-15-34-3-7z" fill="#FBFBF5"/>
<path transform="translate(940,1184)" d="m0 0h8l1 1v19l-1 2h-7v41l-1 23h-1v-64l-32 1h-19v-2h51v-20z" fill="#E3E3E2"/>
<path transform="translate(711,862)" d="m0 0h3l-2 4-10 10-16 12-16 9-6 2h-5l-2-3-12-1v-1l17-3 11-4 14-8 16-11z" fill="#FAF9F4"/>
<path transform="translate(1947,1337)" d="m0 0 54 1v1h-53v66h39v1h-39v65h-2v-64l-47-1h-19l-1-2h67v-66z" fill="#E3E3E2"/>
<path transform="translate(1181,712)" d="m0 0h48v8h-48z" fill="#F7F3E7"/>
<path transform="translate(1181,699)" d="m0 0h48v8h-48z" fill="#F3F0E6"/>
<path transform="translate(605,602)" d="m0 0h18l-1 4-13 29-3 7h-1z" fill="#FDF8E8"/>
<path transform="translate(655,602)" d="m0 0h4l-1 5-24 48h-2v-7l4-11 2-6 1-6 11-22z" fill="#FCFCF6"/>
<path transform="translate(67,751)" d="m0 0h1v119l-2-1v-66h-66v-1h66v-50zm-67 118h66v1h-66z" fill="#E2E2E0"/>
<path transform="translate(753,1184)" d="m0 0h11l6 3 2 2v9l-5 5-5 1h-9l-1-1v-18z" fill="#FCF7E9"/>
<path transform="translate(1461,1184)" d="m0 0h16l1 1v19l-1 1h-16z" fill="#F9F5E8"/>
<path transform="translate(712,878)" d="m0 0h4l-1 5-11 9-18 12-14 7-6-1-1-4 17-8 11-7 12-9z" fill="#FBFBF5"/>
<path transform="translate(753,856)" d="m0 0h6l3 3 1 2v11l-3 6-6 5-4 2h-3l1-24z" fill="#171D33"/>
<path transform="translate(468,1184)" d="m0 0h11l6 3 2 3v8l-6 5-5 1h-8l-1-1v-18z" fill="#FAF6E9"/>
<path transform="translate(1048,769)" d="m0 0h25l8 1 1 4-3 1h-48l-19-1-2-2 6-2z" fill="#F6F3E8"/>
<path transform="translate(661,1185)" d="m0 0h10l-1 20h-20v-7l4-8 5-4z" fill="#FDF8E9"/>
<path transform="translate(1254,1184)" d="m0 0h21l2 1v14h-23z" fill="#FAF5E8"/>
<path transform="translate(1141,65)" d="m0 0h1v200h-1v-133h-70l4-4v2h66z" fill="#E2E1DF"/>
<path transform="translate(1181,687)" d="m0 0h48v7h-48z" fill="#FEF9E9"/>
<path transform="translate(67,1539)" d="m0 0h65v1l-30 1h-34l1 67-2 18h-1v-18h-66v-1h66v-67z" fill="#E2E2E0"/>
<path transform="translate(1477,543)" d="m0 0h1v57l32-1h30v1l-24 1h-38v65l-2 1v-58l1-7-60 1v-2l38-1h22z" fill="#E3E3E2"/>
<path transform="translate(1342,533)" d="m0 0h121v1h-52v53h-1l-1-19v-32l-65-1v54l-2-4v-49h-46l-1-2z" fill="#E3E3E2"/>
<path transform="translate(1544,1189)" d="m0 0h1v16h21v1h-21v19l-5-2-4-6-2-6v-11l3-8 6-2z" fill="#FCF8E8"/>
<path transform="translate(2015,1608)" d="m0 0 20 1v16l-20 1z" fill="#FEF9E9"/>
<path transform="translate(1008,593)" d="m0 0h40v8h-40z" fill="#FEF9E9"/>
<path transform="translate(1135,514)" d="m0 0 6 1 29 14 4 4-4 1-28-1v-16h-2v2l-4-2z" fill="#FDF8EA"/>
<path transform="translate(637,629)" d="m0 0 2 4-5 11-1 9-1 6-2 6v7l4 3-1 3-3 1-6-1-4-9 2-11 8-16z" fill="#FBF6E8"/>
<path transform="translate(1e3 608)" d="m0 0 5 1v6l-12 13-10 10-6 1 1-6 8-12 10-11z" fill="#1D1F33"/>
<path transform="translate(671,646)" d="m0 0 1 2h3l-2 6-15 32-11 24-7 16-3 3 2-9 14-34 13-29z" fill="#F6F2E7"/>
<path transform="translate(1209,653)" d="m0 0h19l6 4 5 8-2 5 4 2-3 2h-6l-2-9-2-2-20-2v-7z" fill="#FAF6E8"/>
<path transform="translate(803,578)" d="m0 0h2v22l-1 1h-22l6-8z" fill="#FEFDF7"/>
<path transform="translate(1275,46)" d="m0 0h2v16h67v45h-1v-43h-66v105l-2 2v-106l-2-2h2z" fill="#E3E3E2"/>
<path transform="translate(1063,865)" d="m0 0h3l-2 4-5 7-2 2 1 4-7 5-10-2-10 3 12-14 12-3 3-1 1-4z" fill="#FDFCF7"/>
<path transform="translate(1328,895)" d="m0 0 9 1 10 3 9 1 15 5v6l3 1h-10l-14-2-3-5-3-2v-3h-2v3l-9-3z" fill="#FDFCF7"/>
<path transform="translate(1678,1538)" d="m0 0 66 1v1h-65v67h66v1h-66v18h-1v-18h-66v-1h66z" fill="#E3E3E2"/>
<path transform="translate(1e3 705)" d="m0 0 2 1v7h2v-5h3l2 4-9 7-10 11h-12l6-8 10-12z" fill="#FDFDF7"/>
<path transform="translate(589,822)" d="m0 0 4 2-1 8-2 8 6 18 3 7v4h-7l-6-13-2-6 1-11 3-3 1-5-2-4 1-4z" fill="#FCFBF5"/>
<path transform="translate(1254,1213)" d="m0 0h21v13h-21z" fill="#FEF9E9"/>
<path transform="translate(861,585)" d="m0 0 3 1 3 6 4 1 1-2 6 14-1 9-1 2h-2l2 8v8l-3-4-5-12 1-10-8-19z" fill="#FAF6E8"/>
<path transform="translate(469,1049)" d="m0 0h2v22h22v1h-22v79l-1 20h-1v-32l-2-1h2v-66h-64v-1h64z" fill="#E2E1DF"/>
<path transform="translate(134,265)" d="m0 0h1v66h44v1h-44v43h-1v-43l-34 1h-31v-2h65z" fill="#E3E3E2"/>
<path transform="translate(998,1047)" d="m0 0h8v30h-7l-1-1z" fill="#FCF8E9"/>
<path transform="translate(974,593)" d="m0 0h32l1 5-1 2-9 1h-23z" fill="#FDF8E8"/>
<path transform="translate(1222,407)" d="m0 0h6l12 6 6 4 6 3 9 6 14 8v6l-7-4-19-12-19-11-8-4z" fill="#FCFBF6"/>
<path transform="translate(537,1538)" d="m0 0 64 1v1h-63v86h-2v-18l-2-1h2v-68z" fill="#E2E2E0"/>
<path transform="translate(1089,892)" d="m0 0h1l1 16v8l-1 2-4-1-4-2h-4l-1-5 4-9z" fill="#F9F5E8"/>
<path transform="translate(599,867)" d="m0 0 3 4 7 13 4 6v3 7l-5-5-8-10-7-13v-3h6z" fill="#F9F5E7"/>
<path transform="translate(659,737)" d="m0 0h6l-1 4-11 18-5 9 4 1h-7l-1-4 4-14 8-12z" fill="#FCFBF6"/>
<path transform="translate(850,549)" d="m0 0h3l15 33 3 7v4l-5-1-3-6-3-1-4-9v-9l-2-10-4-7z" fill="#FBFBF5"/>
<path transform="translate(1085,593)" d="m0 0h6l-2 5-9 14-2 5 2 2-4 1-1-3-2 6-7 3-6 5 1-5 12-14 9-14z" fill="#F9F6E9"/>
<path transform="translate(1046,1188)" d="m0 0 2 1 6 19v5h-15l1-7z" fill="#F8F4E9"/>
<path transform="translate(694,911)" d="m0 0h10l-2 4-6 3v4l-4 1h-11l-9-3 1-5 1-1 10 1z" fill="#FDFDF7"/>
<path transform="translate(706,551)" d="m0 0 1 3-23 45-14 30-2 5-3-1 2-6 14-28 8-17 10-19 6-11z" fill="#EFEDE5"/>
<path transform="translate(1008,1138)" d="m0 0h66l1 1v66h45v1h-45v7h-1v-7l-5 1v-2h5l-1-65-65-1z" fill="#E3E3E2"/>
<path transform="translate(1476,1126)" d="m0 0h1l1 11 63 1v1h-63v14l-1 18h-1v-32h-65v-1h65z" fill="#E3E3E2"/>
<path transform="translate(1410,1124)" d="m0 0h1v15l-2-2zm-68 0h1l1 13 65 1v1l-65 1v30l-2 4-1-3 1-32h-44l1-2 43 1z" fill="#E2E1DF"/>
<path transform="translate(872,459)" d="m0 0 11 3 14 7-3 6-9-3-14-5z" fill="#FAF6E8"/>
<path transform="translate(1181,699)" d="m0 0h27v7h-27z" fill="#FAF5E8"/>
<path transform="translate(602,838)" d="m0 0h2l8 23 4 9-3 2-3-1-1 2-6-17-1-5z" fill="#F6F3E7"/>
<path transform="translate(1059,594)" d="m0 0h15l-6 11-8 12h-1z" fill="#F9F5E7"/>
<path transform="translate(268,28)" d="m0 0h1l1 34 64 1v1h-65l1 22v45h-2v-67l-2-1h2z" fill="#E3E3E2"/>
<path transform="translate(847,1207)" d="m0 0 4 1v7l5 6 4 1 8-4v-9l3-2v13l-5 5-2 1h-10l-5-3-2-2z" fill="#FCFCF6"/>
<path transform="translate(940,1184)" d="m0 0h8l1 1v19l-1 1h-7z" fill="#F9F5E8"/>
<path transform="translate(704,1071)" d="m0 0h43v1h-8v99h-2v-31l-2-2 2-1 1-65h-34z" fill="#E2E0DE"/>
<path transform="translate(612,890)" d="m0 0h2l7 8 8 6 4 2-1 5-5 1-14-11-1-7-1-2z" fill="#FBFBF6"/>
<path transform="translate(923,736)" d="m0 0h8l7 15v11l-6-1-2-13-3-4-3-3z" fill="#FDFCF6"/>
<path transform="translate(1254,690)" d="m0 0h1v45h-5l-1-42 2 1 1 12 1 3z" fill="#FDF9EB"/>
<path transform="translate(951,755)" d="m0 0h54l-1 3h-54z" fill="#FEFAED"/>
<path transform="translate(781,603)" d="m0 0h4l-2 5-5 4-10 13-4 5-5 6h-1v-5l13-18 5-6z" fill="#FDFDF7"/>
<path transform="translate(671,1186)" d="m0 0h1v19h64v1h-64v17l-2 1v-18h-20v-1h20v-15z" fill="#E3E3E2"/>
<path transform="translate(1074,616)" d="m0 0h1v52h21v1h-21l1 44h-2l-1-43-12-1v8h-1v-18h1v9l12-1z" fill="#E3E3E2"/>
<path transform="translate(1208,687)" d="m0 0h21v7h-21z" fill="#FCF7E8"/>
<path transform="translate(729,941)" d="m0 0h11v62l1 2h-2v64h-1v-64l-3-1 2-1 1-61h-9z" fill="#E3E3E2"/>
<path transform="translate(537,1048)" d="m0 0h1v23h18v1h-18v33h-2v-33h-19v-1h19v-17z" fill="#E2E2E0"/>
<path transform="translate(805,578)" d="m0 0h1v22h11l-6 8-4 4-3-1v-8l-23-1v-1l23-1z" fill="#E2E1DF"/>
<path transform="translate(671,716)" d="m0 0h1l1 7v4l-7 11h-9l7-12z" fill="#FBFAF5"/>
<path transform="translate(1210,712)" d="m0 0h19v7h-20v-6z" fill="#FEF9E9"/>
<path transform="translate(1534,1206)" d="m0 0h10v18l-4-1-4-6-2-6z" fill="#FCFBF4"/>
<path transform="translate(1141 1e3)" d="m0 0h1v66h18v1h-18v33h-1l-1-32-16-1v-1h17z" fill="#E2E0DF"/>
<path transform="translate(1021,1207)" d="m0 0h2l-1 7-8 24-3 2h-3v-12l6-2 3-5 3-13z" fill="#FCFCF7"/>
<path transform="translate(1410,1048)" d="m0 0h1v23h42v1h-42v31h-1l-1-5v-36z" fill="#E2E1E0"/>
<path transform="translate(1274,827)" d="m0 0h1l-1 10-5 12h-2v-2l-3-1 1-10 4-7 4-1z" fill="#FCFCF6"/>
<path transform="translate(636,776)" d="m0 0 5 1 2 7 2 2-2 2-9 3-4-1 7-7-10 4 6-10z" fill="#FAF9F4"/>
<path transform="translate(804,581)" d="m0 0h1v19l-1 1h-22l2-2 10 1 1-6 4-4 5-1z" fill="#FEF9E9"/>
<path transform="translate(809,527)" d="m0 0 15 7-3 2h-12l-3 9-2 8-2-1v-2l-3-1 6-10z" fill="#F4F1E6"/>
<path transform="translate(931,478)" d="m0 0h6l8 7 6 11-1 3-1-3-4-2-5-9-1 3-9-3v-3z" fill="#FCFCF6"/>
<path transform="translate(1263,858)" d="m0 0 4 1 11 6 1 3h-14l-11-6v-2h7z" fill="#FCFBF6"/>
<path transform="translate(830,796)" d="m0 0 19 1 27 3v1h-23l-26-1z" fill="#F6F5F0"/>
<path transform="translate(1141,517)" d="m0 0h1v16h31l2-1 3 3h-35v7h-3l1-7h-13l-4-2h17z" fill="#E2DFDC"/>
<path transform="translate(857,428)" d="m0 0 5 4 5 7 4 2v8l-5 2-7-15-2-4z" fill="#FDFCF6"/>
<path transform="translate(834,810)" d="m0 0h14l23 2 3 2h-39z" fill="#FBFBF4"/>
<path transform="translate(1046,875)" d="m0 0 8 2 4 2-1 4-6 4-5-1-4-3h3v-7z" fill="#FBF6E8"/>
<path transform="translate(1008,669)" d="m0 0h12v2l2 1-11 9-3 2z" fill="#FBF7E9"/>
<path transform="translate(666,890)" d="m0 0h4v4h2v2l-8 3h-5l-2-3-12-1v-1l17-3z" fill="#FBFBF6"/>
<path transform="translate(666,758)" d="m0 0 6 1-4 8-7 4h-2l-2-6 4-5z" fill="#FCFCF6"/>
<path transform="translate(979,870)" d="m0 0 2 1-2 5-5 13-4-2-2-6 9-10z" fill="#FBFBF5"/>
<path transform="translate(896,470)" d="m0 0 4 2v2h2l6 10-11-1-4-10z" fill="#FCFBF6"/>
<path transform="translate(871,599)" d="m0 0 3 2v17l2 6v8l-3-4-5-12 1-7 3-1-2-8z" fill="#F9F5E7"/>
<path transform="translate(827,557)" d="m0 0 2 1-5 6-5 5-1 2h-2l-2 4-4 5-3 1v-5l12-13z" fill="#FDFCF7"/>
<path transform="translate(652,1210)" d="m0 0 2 1 3 7 7 5 6-1 1 1 2-3 3 1-1 3-5 2h-9l-6-4-4-6v-5z" fill="#FBFAF4"/>
<path transform="translate(590,800)" d="m0 0 9 2-3 11h-3l-6-8 2-4z" fill="#F8F4E7"/>
<path transform="translate(997,711)" d="m0 0v3l-4 10 1 6h-12l6-8z" fill="#FAF6E8"/>
<path transform="translate(1143,1217)" d="m0 0h2l7 18v2l-9-2z" fill="#FBFBF6"/>
<path transform="translate(576,785)" d="m0 0 5 1 2 3-1 6-2 1h-6l-2-3 1-5z" fill="#FAF5E8"/>
<path transform="translate(1140,654)" d="m0 0h9l12 4v2l-3 1h-15v-5l-3-1z" fill="#FFFFFA"/>
<path transform="translate(1008,1047)" d="m0 0 22 1 2 2-1 3-9-3h-8l-4 4v11l1 4h-3z" fill="#FBFBF6"/>
<path transform="translate(1118,610)" d="m0 0 3 1 8 26v5l-4-5-5-15-2-8z" fill="#FCFBF4"/>
<path transform="translate(954,401)" d="m0 0h4l3 18v5h-7l2-7v-7l-3-7z" fill="#FBFAF4"/>
<path transform="translate(671,915)" d="m0 0 2 1-1 4 8 1 6 2v1l-6 1h-20v-1l8-2 2-4-8-1v-1z" fill="#F7F3E7"/>
<path transform="translate(610,796)" d="m0 0 5 1 2 2-1 6-5 2-4-2-1-5z" fill="#F8F4E8"/>
<path transform="translate(1302,670)" d="m0 0 3 3 8 19 6 17v5l-3-4-8-23-6-15z" fill="#F7F6F1"/>
<path transform="translate(672,759)" d="m0 0h7v7l4 1-7 2h-5v-2h-3l1-4z" fill="#F9F5E7"/>
<path transform="translate(1074,1582)" d="m0 0h1l1 26-1 18h-2v-43z" fill="#E2E1DF"/>
<path transform="translate(1046,1188)" d="m0 0 2 1 3 10v5h-9l1-7z" fill="#FBFBF5"/>
<path transform="translate(737,881)" d="m0 0 6 4-3 10-5-1-3-2 2-5z" fill="#272332"/>
<path transform="translate(1089,892)" d="m0 0h1l1 14-2 4-6-7h-2l2-4z" fill="#FAF9F5"/>
<path transform="translate(1251,685)" d="m0 0 1 2h2v23l-2-1-1-3-1-12-2-1v-5z" fill="#FDFDF8"/>
<path transform="translate(858,838)" d="m0 0h22v1l-16 2-23 1 2-1v-2z" fill="#F1EEE5"/>
<path transform="translate(1152,693)" d="m0 0 3 1-4 7-6 7-3 1-1-3 4-7z" fill="#F7F7F3"/>
<path transform="translate(704,526)" d="m0 0 5 1 2 5-4 5-5-2-2-2 1-5z" fill="#F8F3E5"/>
<path transform="translate(1111,584)" d="m0 0 2 1 3 9v6l-4 1-3-2-1-9 2 1z" fill="#FBFAF5"/>
<path transform="translate(604,741)" d="m0 0 4 1 2 2v5l-2 2h-6l-2-2v-5z" fill="#F8F4E7"/>
<path transform="translate(951,371)" d="m0 0 3 1 3 21v6h-3l-2-14z" fill="#FBFAF3"/>
<path transform="translate(537,1538)" d="m0 0 64 1v1h-63v12h-1l-1-13z" fill="#E3E3E2"/>
<path transform="translate(1045,873)" d="m0 0 2 1-2 9-12 5-2-1 7-7 5-6z" fill="#F9F9F3"/>
<path transform="translate(679,604)" d="m0 0 1 4-12 26-3-1 2-6 11-22z" fill="#F2EFE6"/>
<path transform="translate(1275,1538)" d="m0 0h50l2 2h-50v7h-1z" fill="#E3E3E2"/>
<path transform="translate(1008,1094)" d="m0 0h9l7 14h-2l-4-7-9-1-1 4z" fill="#F9F9F5"/>
<path transform="translate(1299,536)" d="m0 0h7l5 8v5l-4-2-8-8z" fill="#FEFEF7"/>
<path transform="translate(1179,1198)" d="m0 0h1v24h-1v-8h-5l1-7z" fill="#FFFFFA"/>
<path transform="translate(738 1e3)" d="m0 0 3 1-2 1v64h-1l-1-65z" fill="#E4DDD5"/>
<path transform="translate(1035,678)" d="m0 0h2l-1 4-11 15-3 4 1-5 4-9 5-7z" fill="#FAF9F4"/>
<path transform="translate(679,758)" d="m0 0 7 1v4l4 2v3h-6l-5-2z" fill="#FCFBF7"/>
<path transform="translate(738,850)" d="m0 0h5l1 1v7l-5 1-5-5 1-3z" fill="#262332"/>
<path transform="translate(629,660)" d="m0 0h1v12l4 3-1 3-3 1-4-2v-13z" fill="#FDFCF6"/>
<path transform="translate(1e3 630)" d="m0 0h3v5l-8 7h-4l2-5z" fill="#262332"/>
<path transform="translate(1544,1189)" d="m0 0h1v16h21v1h-21v19l-2-1 1-18h-9v-1h9z" fill="#E2E0DF"/>
<path transform="translate(805,1204)" d="m0 0 25 1v1l-17 1h-23l-2-2z" fill="#E2E0DF"/>
<path transform="translate(1559,1219)" d="m0 0h3l-2 4-5 3h-9l-1-2 1-3h9z" fill="#FAFAF5"/>
<path transform="translate(890,557)" d="m0 0h2l7 14-1 4-2-4-3-2v-2h-3l-1-7z" fill="#FAF9F4"/>
<path transform="translate(1328,895)" d="m0 0 9 1 10 3v1h-5v3l-9-3z" fill="#FBFBF5"/>
<path transform="translate(1161,526)" d="m0 0 5 1 8 5-1 2-12-1z" fill="#FDFCF5"/>
<path transform="translate(753,1216)" d="m0 0h8l5 8 2 4-1 3-6-8-5-4-3-1z" fill="#FCFBF5"/>
<path transform="translate(1154,704)" d="m0 0h4l-1 5h-2l-1 3-7 4 1-5 3-5z" fill="#F8F7F2"/>
<path transform="translate(659,917)" d="m0 0h9l2 1-2 5-6 1-3-4z" fill="#FFFFFA"/>
<path transform="translate(1064,1188)" d="m0 0 3 2 2 7 4 1v6h-3-2l-4-12z" fill="#FCFCF6"/>
<path transform="translate(538,1100)" d="m0 0 6 2h7l2 1v2l-4 1h-11z" fill="#F9F9F5"/>
<path transform="translate(518,1101)" d="m0 0 7 1h11v4h-13l-5-3z" fill="#F8F8F3"/>
<path transform="translate(779,820)" d="m0 0h3l1 3v8l-5 8h-2l2-5 2-3-2-8z" fill="#F9F8F1"/>
<path transform="translate(1062,670)" d="m0 0h5l-1 7-2 10-2 1z" fill="#FFFFFA"/>
<path transform="translate(615,870)" d="m0 0 5 5 1 4-9-2-2-3v-3z" fill="#FBFBF5"/>
<path transform="translate(786,875)" d="m0 0h9l-2 5-3 2-4-1v-3h-2v-2z" fill="#FDFCF5"/>
<path transform="translate(1125,1101)" d="m0 0h6l6 2 4-1v4h-10l-5-2z" fill="#F8F8F4"/>
<path transform="translate(744,659)" d="m0 0 3 2 1 6h-9l1-6z" fill="#FDFDF8"/>
<path transform="translate(607,626)" d="m0 0 3 2-1 7-3 7h-1v-15z" fill="#FCFBF4"/>
<path transform="translate(814,601)" d="m0 0 1 2-7 8h-2v-9z" fill="#FAF6E8"/>
<path transform="translate(1612,1061)" d="m0 0 6 2 7 1 1 3-9 1-6-1z" fill="#FDFDF8"/>
<path transform="translate(1321,871)" d="m0 0h6l-1 9-3 3-2-5z" fill="#FDFCF6"/>
<path transform="translate(916,723)" d="m0 0 3 1 6 9 3 1 1-2 1 4-3 1h-5z" fill="#F6F3E7"/>
<path transform="translate(942,886)" d="m0 0h5l-4 4-7 4h-3l-1-4z" fill="#F8F7F3"/>
<path transform="translate(750,797)" d="m0 0 9 1 5 3v2l-10-2-7-1v-2z" fill="#FAF9F2"/>
<path transform="translate(923,768)" d="m0 0h6v3 2l6 1v3h-6l-1-2-5-1 2-1z" fill="#FDFCF6"/>
<path transform="translate(1070,618)" d="m0 0 3 2v3l-7 3-6 5 1-5z" fill="#FCFCF7"/>
<path transform="translate(835,481)" d="m0 0 9 1 18 5 2 2-9-1-20-6z" fill="#BB7750"/>
<path transform="translate(1116,598)" d="m0 0 2 3 2 9h-2l-1-6-1 2-5-1-1-5h6z" fill="#F5F3ED"/>
<path transform="translate(1154,815)" d="m0 0 4 1-3 5-5 4h-2l1-5z" fill="#332830"/>
<path transform="translate(2015,1620)" d="m0 0 1 2h18v3l-19 1z" fill="#FEFEF9"/>
<path transform="translate(765,871)" d="m0 0h5v6l-3 5h-2l-1-7z" fill="#FDFCF6"/>
<path transform="translate(887,551)" d="m0 0 4 5-2 7-3-4-4-7z" fill="#F8F4E7"/>
<path transform="translate(1594,1064)" d="m0 0 12 1 3 1 1-2 1 3-5 1h-12z" fill="#F7F7F3"/>
<path transform="translate(1545,1185)" d="m0 0h11l5 3-1 2-8-1-7-2z" fill="#FBFAF5"/>
<path transform="translate(746,1072)" d="m0 0h2l2 4-1 3-9-1v-5z" fill="#FDFCF7"/>
<path transform="translate(605,914)" d="m0 0 21 1v1l-12 1-8 2-2-4z" fill="#F5F4EF"/>
<path transform="translate(589,822)" d="m0 0 4 2-1 8-1 5h-1l-2-9-1-4z" fill="#F9F8F3"/>
<path transform="translate(1327,804)" d="m0 0h7l-1 13-2-4-4-6z" fill="#FFFFFA"/>
<path transform="translate(1061,704)" d="m0 0h1v10h2l3 5-4 4h-2z" fill="#F3F0E6"/>
<path transform="translate(958,525)" d="m0 0 1 2h2v6h-7v-6z" fill="#FCFBF5"/>
<path transform="translate(917,802)" d="m0 0h23l1 2-2 2-1-2h-22z" fill="#E3E3E2"/>
<path transform="translate(891,667)" d="m0 0h5v4l2 5-1 4-3-4z" fill="#F6F2E6"/>
<path transform="translate(1218,878)" d="m0 0 13 1 5 1v1h-23l2-2z" fill="#EFEDE8"/>
<path transform="translate(1399,700)" d="m0 0h5l-5 6-4 2-2-6z" fill="#FBFBF6"/>
<path transform="translate(761,597)" d="m0 0 5 3v3l-9 2-2 1 2-4z" fill="#F9F5E9"/>
<path transform="translate(647,1070)" d="m0 0 5 5 2 6-7-1z" fill="#FBFBF6"/>
<path transform="translate(1311,694)" d="m0 0 3 1 5 14v5l-3-4z" fill="#FAFAF4"/>
<path transform="translate(1085,593)" d="m0 0h6l-2 5-2 3-4-1 1-6z" fill="#F7F6F1"/>
<path transform="translate(1021,1207)" d="m0 0h2l-1 7-4 12-2-3 4-15z" fill="#FAFAF4"/>
<path transform="translate(880,877)" d="m0 0h2l-2 4-7 6h-2l1-5z" fill="#372930"/>
<path transform="translate(1066,840)" d="m0 0 5 1-1 5h-2v3l-4-2 1-5z" fill="#FAFAF6"/>
<path transform="translate(759,455)" d="m0 0h5l-1 4-3 5h-3l1-7z" fill="#FCFBF6"/>
<path transform="translate(856,811)" d="m0 0h8l10 2v1h-20z" fill="#E8E7E3"/>
<path transform="translate(927,562)" d="m0 0 2 1-1 6-5 4-1-4 4-6z" fill="#F6F3E9"/>
<path transform="translate(1210,556)" d="m0 0 8 6 2 2-5-1-5 2z" fill="#FCFCF5"/>
<path transform="translate(1054,1226)" d="m0 0h5l4 9-1 4-2-7-5-2z" fill="#FCFBF5"/>
<path transform="translate(752,1185)" d="m0 0h1l1 16 10 1-2 2h-9l-1-1z" fill="#EBEBE9"/>
<path transform="translate(1143,1102)" d="m0 0 14 1v2l-7 1h-8z" fill="#F9F9F4"/>
<path transform="translate(968,901)" d="m0 0h3l-1 6-1 1h-5l-1-3z" fill="#2D2531"/>
<path transform="translate(1015,874)" d="m0 0h8l-4 4-7 1-1-3z" fill="#F9F8F2"/>
<path transform="translate(1063,865)" d="m0 0h3l-2 4-4 5-1-2-3-2h2l1-4z" fill="#F3F0E7"/>
<path transform="translate(1074,801)" d="m0 0 3 2-1 1-1 8h-1l-1-8h-13l1-2z" fill="#E3E3E2"/>
<path transform="translate(1321,737)" d="m0 0h6v10l-4-4z" fill="#FDFDF7"/>
<path transform="translate(715,736)" d="m0 0 6 1-3 5-4 1-1-1v-5z" fill="#FEFEF8"/>
<path transform="translate(1082,598)" d="m0 0 1 2 3 1-4 8-1-2-3-1z" fill="#F6F3E8"/>
<path transform="translate(847,405)" d="m0 0 4 2 2 5v5l-3-1-3-7z" fill="#FCFCF5"/>
<path transform="translate(932,567)" d="m0 0 3 1-1 4-3 3-4-1 3-5z" fill="#F4F1E6"/>
<path transform="translate(1010,875)" d="m0 0 3 1h-2l2 4-4 3-3-1v-5z" fill="#F5F2E7"/>
<path transform="translate(894,609)" d="m0 0 3 4 3 6v4h-2l-5-10z" fill="#F5F3EB"/>
<path transform="translate(470,1217)" d="m0 0h7l3 5-1 4-4-4-3-2v-2z" fill="#FAFAF6"/>
<path transform="translate(1113,899)" d="m0 0h5l2 7-2 1-5-5z" fill="#FBFBF5"/>
<path transform="translate(936,814)" d="m0 0h2v4l-5 3h-4l2-4z" fill="#2C2531"/>
<path transform="translate(671,716)" d="m0 0h1l1 7v4l-5-3-2-1z" fill="#F8F5E9"/>
<path transform="translate(1067,712)" d="m0 0 6 1v2l-4 3-4-1-2-4z" fill="#FCFCF6"/>
<path transform="translate(871,599)" d="m0 0 3 2v19h-2l-1-12v-6z" fill="#E3E3E2"/>
<path transform="translate(880,884)" d="m0 0h2v5l-3 2h-4l1-4z" fill="#2D2531"/>
<path transform="translate(1245,879)" d="m0 0 4 1-3 3-6 1-2-1v-2z" fill="#F9F8F3"/>
<path transform="translate(738,868)" d="m0 0 2 2-1 1h-18l4-2z" fill="#DDD0C6"/>
<path transform="translate(1157,821)" d="m0 0h3l-1 5-4 3h-2l1-5z" fill="#462F2E"/>
<path transform="translate(1079,814)" d="m0 0h4l-2 4-5 3h-2l1-4z" fill="#50322D"/>
<path transform="translate(995,692)" d="m0 0h2l-2 4-9 9h-2v-2h2v-2h2l2-4 3-3h2z" fill="#F5F5F1"/>
<path transform="translate(954,401)" d="m0 0h4v10l-4-4-1-5z" fill="#FEFEF8"/>
<path transform="translate(405,1098)" d="m0 0 4 4 4 2 9 1v1h-12l-5-3z" fill="#F4F4EF"/>
<path transform="translate(963,897)" d="m0 0h2l-1 4-3 5-3-1 1-5z" fill="#392A2F"/>
<path transform="translate(1243,857)" d="m0 0h9l2 5-8-1-4-3z" fill="#F4F3EE"/>
<path transform="translate(672,1114)" d="m0 0 3 1 2 6-4 1-1 2z" fill="#FBFBF6"/>
<path transform="translate(998,1094)" d="m0 0h8v6l-5-2-3-2z" fill="#F8F8F4"/>
<path transform="translate(1e3 1047)" d="m0 0h4v8l-1-2-4-1-1-4z" fill="#FBFBF7"/>
<path transform="translate(1e3 876)" d="m0 0 4 1 1 7-4-1-2-5z" fill="#FBFBF6"/>
<path transform="translate(1220,814)" d="m0 0 3 1v3l-4 2h-4l1-4z" fill="#352830"/>
<path transform="translate(637,783)" d="m0 0 2 1v5l-5 2-4-1z" fill="#F8F4E8"/>
<path transform="translate(1077,606)" d="m0 0 4 1-1 5-2 5 2 2-4 1v-6l2-4z" fill="#F8F8F3"/>
<path transform="translate(805,540)" d="m0 0 1 2-1 6-1 5-2-1v-2l-3-1z" fill="#FAF6E9"/>
<path transform="translate(1043,1092)" d="m0 0h4v9h-2l-3-6z" fill="#FAF9F4"/>
<path transform="translate(1022,1048)" d="m0 0h8l2 2-1 3-9-3z" fill="#FDFDF7"/>
<path transform="translate(641,715)" d="m0 0h3l-2 6-4 8-1-3z" fill="#EAE9E4"/>
<path transform="translate(741,716)" d="m0 0h3l-1 7-3 2-1-6z" fill="#FDFDF7"/>
<path transform="translate(734,686)" d="m0 0h2v6l-2 2h-3v-5z" fill="#FFFFFA"/>
<path transform="translate(671,622)" d="m0 0 1 3-4 9-3-1 2-6 2-4z" fill="#F4F1E6"/>
<path transform="translate(1179,1198)" d="m0 0 1 4-1 7-5 2 3-9z" fill="#F8F6EB"/>
<path transform="translate(407,1048)" d="m0 0h9l-3 2-7 2v7h-1v-9z" fill="#FCFCF7"/>
<path transform="translate(1360,1225)" d="m0 0 3 1 6 9-1 2-7-8z" fill="#F9F8F2"/>
<path transform="translate(660,732)" d="m0 0h3l1 2 3 2-2 2h-8z" fill="#F4F1E6"/>
<path transform="translate(755,638)" d="m0 0 1 3-3 6-3 2 1-7z" fill="#FEFDF7"/>
<path transform="translate(717,617)" d="m0 0 4 1-5 6h-2v-5z" fill="#F3F1E8"/>
<path transform="translate(1120,895)" d="m0 0 4 1 4 4-1 2-5-2h-2l-1-3z" fill="#F9F9F4"/>
<path transform="translate(857,873)" d="m0 0h9v3h-10z" fill="#FFFFFA"/>
<path transform="translate(1461,871)" d="m0 0h5l-2 6-3 3z" fill="#FCFCF7"/>
<path transform="translate(951,755)" d="m0 0h13v1l-6 1v1h-8z" fill="#FBF6E8"/>
<path transform="translate(1233,669)" d="m0 0 6 1 2 2-3 2-5-1z" fill="#FCF7E8"/>
<path transform="translate(1084,417)" d="m0 0 4 5v2h-6l1-6z" fill="#FCFCF6"/>
<path transform="translate(1227,819)" d="m0 0 1 2-5 5-3 1 1-4z" fill="#2B2531"/>
<path transform="translate(1009,707)" d="m0 0 4 3v2l-4 3-3-1 2-1v-5z" fill="#FBFBF4"/>
<path transform="translate(1045,684)" d="m0 0 2 1-1 7-6-2z" fill="#FEFEF9"/>
<path transform="translate(629,660)" d="m0 0h1l-1 11h-2l-1-7z" fill="#F8F8F3"/>
<path transform="translate(876,632)" d="m0 0 1 2h2l3 7v5l-3-4-3-7z" fill="#F8F4E7"/>
<path transform="translate(954,390)" d="m0 0 3 3v6h-3l-1-8z" fill="#FCFCF6"/>
<path transform="translate(926,743)" d="m0 0h3l2 7v5l-2-3-3-6z" fill="#F8F4E7"/>
<path transform="translate(1289,527)" d="m0 0 6 2 2 4-5-1-3-3z" fill="#F9F9F5"/>
</svg>
